<svg id="Layer_1" data-name="Layer 1" xmlns="http://www.w3.org/2000/svg" viewBox="0 0 126 230.4"><defs><style>.cls-1{fill:#00885f;}</style></defs><title>animation-monster-header</title><path class="cls-1" d="M49.5,227.5c3.2,3.2,11.8,4.6,16,6s13.4-.9,18,0c12,2.4,17.7,7.6,30,7,10.6-.5,9.6-1,20-3,4.9-.9,23.3-2.2,28-4,3-1.1,10,0,11-3-2.6,1.3-5.7.6-9,.3-5.1-.4-10.5-2.2-14.6-3-15.1-3.3-29.2-13.3-30.7-29.9-.7-7.8,1.8-16,2.6-23.7s-.5-13.8,4.7-19.5c1.7,1.1,1.1,3.6,3.9,3.5,1.7-2.5,1.1-4.7.8-7.4s-.9-8.4.9-10.4,4.4,4.4,8.2,2.3c1.8-1,2.3-6.8,2.5-8.9,0,5.2.9,10,1.7,15s.5,10.2,1.1,15.2c-.1-4.5,1.2-8.5,1.6-12.9.5-6.1,0-12.4,0-18.6,0-12.6,3.8-24.5,2.6-37.2-.5-6.1-.4-12.5-1.6-18.4s-3-9-4.6-13.5c-2.8-8.1-3.4-20.8,1.3-28.5,2.5-4,8.5-6.1,13-9s7.7-6.7,7.7-12.9a32.8,32.8,0,0,1-11.6,13,43.7,43.7,0,0,1-8.1,4c-3.5,1.3-8.8,4.3-12.6,4.3s-8.1-2.7-11.5-4.2c-7.7-3.1-18.5-3.6-26.5-.9S80,32.3,72.2,29A29,29,0,0,1,56.6,13c.1,2.9.1,6.7,2,9.9A11.3,11.3,0,0,0,62,26.1a24.9,24.9,0,0,1,4.4,3.4c.5.6,1.9,1,9.3,4l1.2.5a19.1,19.1,0,0,1,8.3,6.4h0c0,5.8-1,11.4-1.3,17.1-.7,13.4,0,27-.6,40.5-.4,8-.7,16.3-1.2,24.3-.4,6.4-1.8,14.6.5,20.7,1.7-1.1,1.9-3.9,3.5-5.2,2.2,2.6,1.4,6,1.2,9-.2,4.7-.5,9.6-.2,14.3,1.7-3.3,2.5-8.2,2.8-11.9s-.8-7.7.9-11.1c3.2,2.4,2.7,8.5,3.4,12.1a32.4,32.4,0,0,1,1.7-3.5c1.2,2.5,1.5,8.4,4.2,9.6.6-2.3.4-5,1.2-7.2,2.1,2.9,3.9,7,5.7,10.4,2.7,5.3,2.9,10,2.9,15.9,0,15.3-5.6,31.7-15.6,43.5s-18.9,11.4-37.9,9.4Z" transform="translate(-47.9 -11.6)"/><path class="cls-1" d="M48.4,228.6c4.1,3.5,9.6,4.4,14.6,5.8s11,.5,17,.4,13.9,3.7,20.7,5.6,13.1,1.8,19.7,1.1c4.8-.5,9.4-1.9,14.1-2.7s10.4-1.2,15.6-1.8,8.4-1.4,12.7-2.3,9,.4,11.1-3.4c.6-1.1-.4-2.7-1.7-2.2-4.5,1.7-10.6.2-15.1-.8s-8.3-1.9-12.3-3.1c-7.8-2.5-15.4-7.1-20.1-13.9-5.8-8.4-5.3-17.8-3.7-27.5a107.8,107.8,0,0,0,1.6-13.2c.2-5.4.5-10.3,4-14.7h-2.1c2.1,1.9,1.9,3.6,4.9,3.9a1.5,1.5,0,0,0,1.3-.7c2-3.9.9-7.6.7-11.7-.1-1.5-.4-6,1.4-5.5s2.1,2,3.2,2.5c6.2,2.4,6.7-6.5,7.1-10.4h-3a104.9,104.9,0,0,0,1.5,13.6c.8,5.6.8,11.1,1.4,16.7a1.5,1.5,0,0,0,3,0c.2-7.8,1.9-15.2,1.7-23.1a151.6,151.6,0,0,1,1.1-23.2c1-7.4,1.9-14.8,1.4-22.3S150,80.9,148,74c-3.4-11.9-10.7-26.2-2.7-38.3,3.4-5,10.4-6.5,15-10.3a15.9,15.9,0,0,0,5.9-12.4,1.5,1.5,0,0,0-2.8-.8c-5.1,9.2-12.1,13.3-21.5,17.4-6,2.6-9.8,3.9-16.1,1.1a48.9,48.9,0,0,0-12-4.1,44.6,44.6,0,0,0-12.6-.4c-4.8.5-9.1,2.4-13.8,3.2A27.4,27.4,0,0,1,58.1,12.6c-.6-1.4-3-1.4-2.9.4.2,4.9.6,9.8,4.5,13.2a37.9,37.9,0,0,0,7.7,5.5c4.2,2,9,3,12.9,5.7s3.5,6,3.1,10.6-.7,7.6-.9,11.4c-.6,14.7-.1,29.4-.8,44.2-.3,7.3-.6,14.5-1.2,21.8s-1.1,12.1.8,18a1.5,1.5,0,0,0,2.5.7c1.6-1.5,2.1-3.6,3.5-5.2l-2.4-.3c2.1,3.2,1.1,7.3.9,10.9s-.3,7.8-.1,11.6c0,1.4,2.1,2.2,2.8.8a35.2,35.2,0,0,0,2.7-9.7c.6-4.5-.5-9.3,1.2-13.6l-2.5.7c3,2.8,2.4,7.7,3,11.5a1.5,1.5,0,0,0,2.7.4c.5-1.2,1.1-2.3,1.7-3.5l-2.7-.4c1.5,3.6,1.4,8.1,4.8,10.5a1.5,1.5,0,0,0,2.2-.9c.5-2.4.6-4.8,1.2-7.2l-2.7.4c3.2,4.8,6.5,10.6,7.7,16.2s.9,12.6,0,18.6a66.9,66.9,0,0,1-14,32.7c-11.2,13.6-28.3,10.8-43.9,8.6-1.9-.3-2.7,2.6-.8,2.9,8.6,1.2,17.4,2.6,26.1,1.8s16.2-5.2,21.8-12.4a70.5,70.5,0,0,0,14-34.3c1.7-13.3-.8-24.3-8.2-35.5a1.5,1.5,0,0,0-2.7.4c-.6,2.4-.7,4.8-1.2,7.2l2.2-.9c-2.3-1.6-2.5-6.3-3.5-8.7a1.5,1.5,0,0,0-2.7-.4c-.6,1.1-1.1,2.3-1.7,3.5l2.7.4c-.7-4.4-.2-9.5-3.8-12.8a1.5,1.5,0,0,0-2.5.7c-1.3,3.4-.9,6.4-.9,9.9a32.5,32.5,0,0,1-2.7,12.7l2.8.8c-.2-5,0-10,.3-15,.2-3.4.4-6.2-1.5-9.1a1.5,1.5,0,0,0-2.4-.3c-1.4,1.6-2,3.7-3.5,5.2l2.5.7c-2.1-6.4-1-13-.5-19.5s.8-14.2,1.1-21.3c.7-14.4.1-28.8.8-43.2.2-3.5.6-7,.9-10.5s1.1-6,.3-8.2-6.2-5.9-9.3-7.3-6.9-2.2-9.8-4-3.3-2.5-4.7-3.7c-4-3.2-4.5-7.1-4.7-11.8l-2.9.4A30.8,30.8,0,0,0,77.9,32.3c5.9,1.1,11.2,0,16.9-1.6a41.2,41.2,0,0,1,19.8-.8c5.6,1.2,10.4,4.9,16,5.8s7.9-1.2,11.6-2.8c10.3-4.4,18.2-8.9,23.8-19l-2.8-.8c-.5,13.7-18,13.3-22.4,25.1s-.7,22.5,3.2,33.2c2.8,7.7,2.8,15.9,3.3,24s-.4,14.8-1.4,22.3a144.4,144.4,0,0,0-1.1,22.3,95.4,95.4,0,0,1-.1,11.1c-.4,4.3-1.5,8.5-1.6,12.9h3c-.5-4.6-.4-9.2-.9-13.7s-1.8-10.9-1.9-16.5c0-2-2.8-1.9-3,0s-.2,3.9-.9,5.5-2.6,1.5-4.6.1-2.9-1.7-4.5-.4-1.9,5.7-1.9,8.2.5,4,.5,5.9c-.1,4.7-.7,2.2-2.4.5a1.5,1.5,0,0,0-2.1,0,21,21,0,0,0-4.6,11.7c-.6,6.2-.9,12.3-2,18.5-1.7,10.1-1.9,20.1,4.1,28.9,4.8,7,12.1,11.8,20,14.7a114,114,0,0,0,16,4.2c4.7.9,10.4,2.2,15,.5l-1.7-2.2c-1.2,2.1-5.9,1.5-7.9,1.8s-3,.8-4.5,1.1a124.8,124.8,0,0,1-14.2,2c-8.5.9-16.7,3.1-25.2,4-6.6.6-12.9.5-19.2-1.5s-11.3-4.6-17.3-5.2-10.7,1.4-15.9.4-12.4-2.5-16.4-5.9C49.1,225.2,47,227.3,48.4,228.6Z" transform="translate(-47.9 -11.6)"/></svg>
