<svg xmlns="http://www.w3.org/2000/svg" viewBox="0 0 1047 714"><defs><style>.cls-1{opacity:0.6;}.cls-2{fill:#505a72;}.cls-3{fill:#e16147;}.cls-4{fill:#f9f9f9;}</style></defs><title>banner-port</title><g id="Red_Bot" data-name="Red Bot"><g class="cls-1"><rect class="cls-2" x="669" width="378" height="328"/></g><rect class="cls-3" x="5" width="379" height="325"/><rect class="cls-3" x="661" y="453" width="384" height="176"/><rect class="cls-3" x="384" width="285" height="714"/><ellipse class="cls-3" cx="854" cy="165" rx="133" ry="131.8"/><rect class="cls-3" x="529" y="453" width="516" height="87"/></g><g id="Grey_Bot" data-name="Grey Bot"><g class="cls-1"><rect class="cls-2" x="1" y="540" width="383" height="174"/></g><g class="cls-1"><rect class="cls-2" x="384" width="67" height="714"/></g><g class="cls-1"><rect class="cls-4" x="789" width="120" height="453"/></g><g class="cls-1"><rect class="cls-2" x="5" width="379" height="162"/></g></g><g id="White_Bot" data-name="White Bot"><g class="cls-1"><rect class="cls-4" x="1" y="325" width="383" height="301"/></g></g><g id="Red_Top" data-name="Red Top"><rect class="cls-3" x="456" width="66" height="714"/><rect class="cls-3" x="5" width="517" height="81"/></g><g id="White_Top" data-name="White Top"><g class="cls-1"><rect class="cls-4" x="5" y="81" width="664" height="162"/></g><g class="cls-1"><rect class="cls-4" x="590" y="540" width="456" height="174"/></g></g><g id="Grey_Top" data-name="Grey Top"><g class="cls-1"><rect class="cls-2" x="523" y="243" width="67" height="471"/></g><g class="cls-1"><rect class="cls-2" x="523" width="67" height="81"/></g><g class="cls-1"><polygon class="cls-2" points="523 243 590 243 590 162 523 243"/></g><g class="cls-1"><polygon class="cls-2" points="523 81 590 81 590 162 523 81"/></g><g class="cls-1"><rect class="cls-2" x="384" width="67" height="81"/></g><g class="cls-1"><polygon class="cls-2" points="384 243 451 243 451 162 384 243"/></g><g class="cls-1"><polygon class="cls-2" points="384 81 451 81 451 162 384 81"/></g><g class="cls-1"><rect class="cls-2" x="245" width="67" height="81"/></g><g class="cls-1"><polygon class="cls-2" points="245 243 312 243 312 162 245 243"/></g><g class="cls-1"><polygon class="cls-2" points="245 81 312 81 312 162 245 81"/></g><g class="cls-1"><polygon class="cls-2" points="5 243 72 243 72 162 5 243"/></g><g class="cls-1"><polygon class="cls-2" points="5 81 72 81 72 162 5 81"/></g><g class="cls-1"><rect class="cls-2" x="245" y="243" width="67" height="82"/></g><g class="cls-1"><rect class="cls-2" x="5" y="243" width="67" height="82"/></g><g class="cls-1"><rect class="cls-2" x="5" width="67" height="81"/></g><g class="cls-1"><polygon class="cls-2" points="101 714 173 714 173 626 101 714"/></g><g class="cls-1"><polygon class="cls-2" points="101 540 173 540 173 626 101 540"/></g><g class="cls-1"><polygon class="cls-2" points="312 714 384 714 384 626 312 714"/></g><g class="cls-1"><polygon class="cls-2" points="312 540 384 540 384 626 312 540"/></g><g class="cls-1"><polygon class="cls-2" points="206 714 278 714 278 626 206 714"/></g><g class="cls-1"><polygon class="cls-2" points="206 540 278 540 278 626 206 540"/></g><g class="cls-1"><polygon class="cls-2" points="0 714 72 714 72 626 0 714"/></g><g class="cls-1"><polygon class="cls-2" points="0 540 72 540 72 626 0 540"/></g><g class="cls-1"><rect class="cls-2" y="393" width="384" height="81"/></g></g></svg>
