<svg id="Layer_1" data-name="Layer 1" xmlns="http://www.w3.org/2000/svg" viewBox="0 0 829.7 480.3"><defs><style>.cls-1{opacity:0.3;}.cls-2{fill:#00885f;}.cls-3{opacity:0.6;}.cls-4{fill:#80c3bc;}</style></defs><title>big-leaf</title><g class="cls-1"><path class="cls-2" d="M103.7,510.5l2,.5c73.7,16.3,115.7,13.4,187.5,2.5,30.2-4.6,61.2-11.5,92.1-3.3,24.1,6.4,50.4,21.8,70.8,9.6,11.3-6.8,15.1-19.8,11.4-32.4-7.2-24.6-59.6-32.9-82.3-46.7-17.6-10.7-74.8-23.5-100.5-39.1-9.1-5.5-8.7-17.1.7-20.1,49-15.5,96.2,5.8,144.4,23.6,23.6,8.8,125.1,41.2,147.9,31.6,12.3-5.2,20.1-16.2,18.5-28.7-3-23.4-34-34.6-59.4-40.8l-82.5-20c-9.3-2.2-17.6-7.9-21.9-15.6-7.8-14.1,2.8-22.4,12.4-29.1l137.7-96.3c-86.9-21.6-170.1,18-233.9,64.6-11.5,8.4-25.2,17.7-41.9,11a33.2,33.2,0,0,1-17.6-16.6c-7.5-15.9-2.6-31.2,2.1-45.7l27.5-83.6c-74.6,29.9-132.6,86-159.8,154.5-6.1,15.4-11.2,32-28.1,40.6a32.3,32.3,0,0,1-27,1c-18.2-7.7-19.8-26.3-17.7-41.3,5.8-40.5,26.5-82.7,3.2-121.1C20.5,235.4,30,341.8,43.2,436.6c3.3,24-7.5,33.1,10,57.5,1.3,1.8,4.2,2.4,6.5,3.1Z" transform="translate(-33.8 -62.6)"/></g><g class="cls-3"><path class="cls-4" d="M839.6,182.9c-8.9-7.5-11-11.7-35.4-30.1-12.2-9.2-54.7-21.6-87-27.6-37.4-7-91.5-59.4-128.2-62.5-7.9-.7-15.6.3-21.7,3.3-24.2,11.7-6.1,39.2,15.4,54.1s78.5,44.7,91,67.6c5.8,10.7,2,19-7.8,24.2s-64.6-5.5-75.1-9.3c-91.5-32.3-79-52.8-126.8-73.7-10.9-4.8-22.4-9.7-33.6-10A35.6,35.6,0,0,0,396,140.6c-10.3,23.7,2.8,57.1,30.6,77.5s72.9,35.2,75.5,62.8c1,10.9-5.6,19.7-16,24.3-20.1,8.7-44.9,4.1-68.5,2.7-32.6-1.9-64.9,3-86.8,18.9s-32.7,51.4-18.7,71.5h0c35,41.7,122.9-3.6,174.8-23,18.4-6.9,36.1-15.2,57.1-17.4s46.9,3.4,63.3,19a49.9,49.9,0,0,1,13.1,53c-5.8,16.3-18.5,29.1-29.6,42.6s-21.2,30.2-10.9,50.2c5.9,11.5,19.6,20.5,33.1,20.1s20.2-11.7,24.7-21.8c25.6-57.8,21.2-58.9,59.2-109.9,11-14.7,27.3-55,58.5-33.3,19.2,13.3,14.2,29.3,8.5,46.3-10.6,31.4-36.3,30.4-40.8,77.9-2,20.8,17.8,36.4,22.5,39.2,8.5,5.1,18.1-7.9,22.2-12.8,63.9-76.1,83-184.7,87.4-216.3,6.4-46.7,11.2-67.3,6.6-80.9l-5.1-15C852.7,198.8,840.2,183.5,839.6,182.9Z" transform="translate(-33.8 -62.6)"/></g></svg>
