<svg id="Layer_1" data-name="Layer 1" xmlns="http://www.w3.org/2000/svg" viewBox="0 0 151 152"><defs><style>.cls-1,.cls-2,.cls-3,.cls-4,.cls-5{fill:none;stroke-miterlimit:10;stroke-width:2px;}.cls-1{stroke:#bec1c4;}.cls-2{stroke:#2f3e46;}.cls-3{stroke:#ef9fb7;}.cls-4{stroke:#e5b008;}.cls-5{stroke:#2a7f00;}</style></defs><title>cilliya-logo-color</title><path class="cls-1" d="M180,111.28s-41.25,32.71-45.28,33-35.59-27.1-33.62-28.08S133.63,79,134.62,80,181,111.28,180,111.28Z" transform="translate(-61.5 -59.5)"/><path class="cls-2" d="M100.5,185.81V115.5c1-27,34-37,34-37s34-1,46,32V182" transform="translate(-61.5 -59.5)"/><path class="cls-3" d="M85,189c39.82-2,49.78-45,49.78-45s-3.94,45.52,61.24,36.94" transform="translate(-61.5 -59.5)"/><path class="cls-4" d="M211.5,135.5c0,41.42-33.35,75-74.5,75a74,74,0,0,1-52.1-21.39A75,75,0,0,1,62.5,135.5c0-41.42,33.35-75,74.5-75S211.5,94.08,211.5,135.5Z" transform="translate(-61.5 -59.5)"/><path class="cls-5" d="M98,187" transform="translate(-61.5 -59.5)"/><path class="cls-1" d="M133.35,143.85a2.59,2.59,0,0,0,2.55,0" transform="translate(-61.5 -59.5)"/></svg>
