<svg id="Layer_1" data-name="Layer 1" xmlns="http://www.w3.org/2000/svg" viewBox="0 0 319.4 136.2"><title>cilliya-signature</title><path d="M175.1,291.3c-16.1-2.3-31.5,5.6-41.4,18-11.3,14.1-14.5,32.9-14.2,50.6.2,15.9,1.6,36,15.9,45.9,5.8,4.1,13.4,6,20.2,3.5s12.6-9.6,17.2-15.6a122.8,122.8,0,0,0,23.3-57.9h-3l1.1,28.5c.2,4.9.3,9.8.6,14.8.2,3.1.4,6,2.3,8.7,8.1,11.1,19.9-2.5,24.1-9.8A149.4,149.4,0,0,0,240,286.1a1.5,1.5,0,0,0-2.9-.4,206.4,206.4,0,0,0-10,51.7,201.7,201.7,0,0,0,.1,26.2c.4,5.5.5,11.8,3.9,16.4,6.2,8.6,19.7,4,23.8-4.2s6.4-15.1,9.5-22.6,6-15.1,8.6-22.8c5.8-17.7,8.7-36,6.4-54.7a1.5,1.5,0,0,0-2.9-.4c-5.4,13.9-6.8,28.8-6.4,43.7.2,7.8.8,15.5,1.3,23.3.3,3.9.6,7.7.8,11.6s0,5.2,1,7.6a9.4,9.4,0,0,0,9.4,6.1c5.1-.5,7.3-5.9,9.1-10A126.3,126.3,0,0,0,302.3,315h-3a205.5,205.5,0,0,0,1.1,36.9c.4,2.9,0,7.2,2.9,8.8s4.9-.5,6.6-2.5c13.2-15.1,14.7-35.9,18.2-54.7l-2.9-.4c1.1,13.2,1.7,26.6,3.4,39.7.2,1.7.3,3.5,2.2,4.2,4.6,1.8,7.6-6.9,9.1-9.7,8.2-14.7,14.3-30.6,20.3-46.3l-2.9-.4a202.3,202.3,0,0,1-11.9,92.7h2.9c-6.3-25.3,10.7-48.4,24.7-67.9l12.5-17.4c1.1-1.5,2.2-3.1,3.3-4.6,2.8-3.7,17-13.2,17-2.9a1.5,1.5,0,0,0,3,0c.1-7.6-6.8-10-13.2-7.4-8.7,3.6-11.6,13-12.6,21.6-.5,4-1.8,9.7.6,13.3s6,3.5,9.1,1.7,7-7.4,9.3-11.4a61.9,61.9,0,0,0,6.8-17.5c.3-1.6-2-2.8-2.7-1.2-5.2,11.4,2.3,26.5,15.2,28,5.9.7,12.2-1.6,15.4-6.8s2.2-12.6-1-18.2c-.9-1.7-3.5-.2-2.6,1.5,2.5,4.4,3.9,10,1.2,14.7s-8.7,6.7-13.8,5.6c-10-2.1-16-14.2-11.8-23.4l-2.7-1.2a60,60,0,0,1-7.8,18.9c-1.5,2.5-3.9,7.1-6.9,8.2-7.7,2.8-5.7-8.3-5.4-11,.6-5.9,1.8-12.6,6.1-17s14-7.4,13.9,1.3h3c0-4.7-2.5-7.7-7.4-7.5s-11.4,4-15,8.6-8.6,11.9-12.9,17.9c-15.5,21.5-35.2,46.5-28.2,74.7.4,1.5,2.4,1.3,2.9,0a204.3,204.3,0,0,0,12-93.5,1.5,1.5,0,0,0-2.9-.4c-5.3,13.8-10.6,27.6-17.4,40.7-.9,1.7-7.3,13.8-8.3,12.7s-.4-4.9-.5-5.9l-3-34.6c-.1-1.6-2.6-2.2-2.9-.4-2.8,15.1-4.1,31.2-11.6,44.9-1.2,2.2-6.1,12-9.6,9.4-.8-.5-.8-6-.9-7s-.5-4.9-.7-7.3a207.8,207.8,0,0,1-.2-27.8c.1-1.9-2.9-1.9-3,0a122.4,122.4,0,0,1-8,35.5c-1.8,4.6-5.1,16.6-12.2,13.4-5.4-2.5-4.1-13.1-4.5-18.1-1.7-23.3-4-47.4,4.7-69.7l-2.9-.4c2.2,18.4-.6,36.4-6.3,53.9-2.7,8.3-5.9,16.4-9.2,24.4L256,365.6c-2,4.7-3.4,10.8-7.9,13.8-7.4,5-15,1.4-16.9-6.7s-1.6-18.7-1.4-27.8A203.3,203.3,0,0,1,240,286.5l-2.9-.4a147.1,147.1,0,0,1-12.2,78.1,106.9,106.9,0,0,1-8.9,16.3,22,22,0,0,1-7.3,7c-5.6,3-10.2-.5-10.9-6.5s-.5-14.5-.8-21.6l-.9-23.6a1.5,1.5,0,0,0-3,0A119.8,119.8,0,0,1,177.6,381c-7.1,12.1-18.9,31.5-35.5,25.1s-18.7-26-19.5-41.1.8-32.8,8.7-46.9,25.2-26.4,43-23.9c1.9.3,2.7-2.6.8-2.9Z" transform="translate(-119.4 -274.2)"/><path d="M199.9,322.3a38.3,38.3,0,0,0,14-25.7c.2-1.9-2.8-1.9-3,0a35.3,35.3,0,0,1-13.1,23.6c-1.5,1.2.6,3.3,2.1,2.1Z" transform="translate(-119.4 -274.2)"/><path d="M304.7,304.8a56.2,56.2,0,0,0,11.2-19.6c.6-1.8-2.3-2.6-2.9-.8a52.3,52.3,0,0,1-10.4,18.2c-1.3,1.4.8,3.6,2.1,2.1Z" transform="translate(-119.4 -274.2)"/></svg>
