<svg xmlns="http://www.w3.org/2000/svg" viewBox="0 0 595 171"><defs><style>.cls-1,.cls-2{stroke:#000;}.cls-1,.cls-2,.cls-3,.cls-4,.cls-5,.cls-6,.cls-7,.cls-8{stroke-miterlimit:10;stroke-width:2px;}.cls-2,.cls-3,.cls-4,.cls-5,.cls-6,.cls-7,.cls-8{fill:none;}.cls-3{stroke:#fff;}.cls-4{stroke:#bec1c4;}.cls-5{stroke:#2f3e46;}.cls-6{stroke:#ef9fb7;}.cls-7{stroke:#e5b008;}.cls-8{stroke:#2a7f00;}</style></defs><title>cilliya-logo-negative-positive-color</title><g id="Layer_2" data-name="Layer 2"><rect class="cls-1" x="205.5" y="1" width="169" height="169"/><path class="cls-2" d="M736.5,251.5c0,41.42-33.35,75-74.5,75a74,74,0,0,1-52.1-21.39,75,75,0,0,1-22.4-53.61c0-41.42,33.35-75,74.5-75S736.5,210.08,736.5,251.5Z" transform="translate(-586.5 -166)"/><path class="cls-2" d="M610,305c39.82-2,49.78-45,49.78-45s-3.94,45.52,61.24,36.94" transform="translate(-586.5 -166)"/><path class="cls-2" d="M705,227.28s-41.25,32.71-45.28,33-35.59-27.1-33.62-28.08S658.63,195,659.62,196,706,227.28,705,227.28Z" transform="translate(-586.5 -166)"/><path class="cls-2" d="M625.5,301.81V231.5c1-27,34-37,34-37s34-1,46,32V298" transform="translate(-586.5 -166)"/><path class="cls-3" d="M951.5,251.5c0,41.42-33.35,75-74.5,75a74,74,0,0,1-52.1-21.39,75,75,0,0,1-22.4-53.61c0-41.42,33.35-75,74.5-75S951.5,210.08,951.5,251.5Z" transform="translate(-586.5 -166)"/><path class="cls-3" d="M825,305c39.82-2,49.78-45,49.78-45s-3.94,45.52,61.24,36.94" transform="translate(-586.5 -166)"/><path class="cls-3" d="M920,227.28s-41.25,32.71-45.28,33-35.59-27.1-33.62-28.08S873.63,195,874.62,196,921,227.28,920,227.28Z" transform="translate(-586.5 -166)"/><path class="cls-3" d="M840.5,301.81V231.5c1-27,34-37,34-37s34-1,46,32V298" transform="translate(-586.5 -166)"/><path class="cls-4" d="M1149,227.28s-41.25,32.71-45.28,33-35.59-27.1-33.62-28.08S1102.63,195,1103.62,196,1150,227.28,1149,227.28Z" transform="translate(-586.5 -166)"/><path class="cls-5" d="M1069.5,301.81V231.5c1-27,34-37,34-37s34-1,46,32V298" transform="translate(-586.5 -166)"/><path class="cls-6" d="M1054,305c39.82-2,49.78-45,49.78-45s-3.94,45.52,61.24,36.94" transform="translate(-586.5 -166)"/><path class="cls-7" d="M1180.5,251.5c0,41.42-33.35,75-74.5,75a74,74,0,0,1-52.1-21.39,75,75,0,0,1-22.4-53.61c0-41.42,33.35-75,74.5-75S1180.5,210.08,1180.5,251.5Z" transform="translate(-586.5 -166)"/><path class="cls-8" d="M1067,303" transform="translate(-586.5 -166)"/><path class="cls-4" d="M1102.35,259.85a2.59,2.59,0,0,0,2.55,0" transform="translate(-586.5 -166)"/></g></svg>
