<svg id="Layer_1" data-name="Layer 1" xmlns="http://www.w3.org/2000/svg" viewBox="0 0 191 128"><defs><style>.cls-1{fill:#2f3e46;}.cls-2{fill:#e5b008;}.cls-3{fill:#f9f9f9;}.cls-4{fill:#ddd;}.cls-5{fill:#bec1c4;}.cls-6{fill:#ef9fb7;}</style></defs><title>color-scheme-dots</title><path class="cls-1" d="M42,72.5A27.5,27.5,0,1,1,69.5,45,27.53,27.53,0,0,1,42,72.5Z" transform="translate(-14 -17)"/><path class="cls-1" d="M42,18A27,27,0,1,1,15,45,27,27,0,0,1,42,18m0-1A28,28,0,1,0,70,45,28,28,0,0,0,42,17Z" transform="translate(-14 -17)"/><path class="cls-2" d="M110,72.5A27.5,27.5,0,1,1,137.5,45,27.53,27.53,0,0,1,110,72.5Z" transform="translate(-14 -17)"/><path class="cls-2" d="M110,18A27,27,0,1,1,83,45a27,27,0,0,1,27-27m0-1a28,28,0,1,0,28,28,28,28,0,0,0-28-28Z" transform="translate(-14 -17)"/><path class="cls-3" d="M177,72.5A27.5,27.5,0,1,1,204.5,45,27.53,27.53,0,0,1,177,72.5Z" transform="translate(-14 -17)"/><path class="cls-4" d="M177,18a27,27,0,1,1-27,27,27,27,0,0,1,27-27m0-1a28,28,0,1,0,28,28,28,28,0,0,0-28-28Z" transform="translate(-14 -17)"/><path class="cls-5" d="M143,144.5A27.5,27.5,0,1,1,170.5,117,27.53,27.53,0,0,1,143,144.5Z" transform="translate(-14 -17)"/><path class="cls-5" d="M143,90a27,27,0,1,1-27,27,27,27,0,0,1,27-27m0-1a28,28,0,1,0,28,28,28,28,0,0,0-28-28Z" transform="translate(-14 -17)"/><path class="cls-6" d="M75,144.5A27.5,27.5,0,1,1,102.5,117,27.53,27.53,0,0,1,75,144.5Z" transform="translate(-14 -17)"/><path class="cls-6" d="M75,90a27,27,0,1,1-27,27A27,27,0,0,1,75,90m0-1a28,28,0,1,0,28,28A28,28,0,0,0,75,89Z" transform="translate(-14 -17)"/></svg>
