<svg id="Layer_1" data-name="Layer 1" xmlns="http://www.w3.org/2000/svg" viewBox="0 0 109.4 32.5"><defs><style>.cls-1{fill:#fff;}</style></defs><title>social-media-Xd</title><path class="cls-1" d="M80,8.5a12.2,12.2,0,0,1-3.5.8A6.5,6.5,0,0,0,79,6.5c-1.2.7-2.3.6-3.7.9a6.2,6.2,0,0,0-4.5-1.9,6.1,6.1,0,0,0-6.2,6.1,5.9,5.9,0,0,0,.2,1.4A17.9,17.9,0,0,1,52,6.5a6.3,6.3,0,0,0-.7,3.2,6,6,0,0,0,2.7,5,6.2,6.2,0,0,1-2.8-.8h0A6.1,6.1,0,0,0,56.1,20l-1.6.2H53.3A6.2,6.2,0,0,0,59,24.5c-2.6,3-8.5,2.1-9,2a17.9,17.9,0,0,0,9.4,3A17.2,17.2,0,0,0,76.9,12.3c0-.3,0-.5,0-.8A11.8,11.8,0,0,0,80,8.5Z"/><polygon class="cls-1" points="108.4 16 95.4 16 95.4 10 109.4 10 108.4 16"/><path id="Facebook" class="cls-1" d="M98.5,6V30h6V7a.9.9,0,0,1,1-1h4V0h-4.6C98.3,0,98.5,5.3,98.5,6Z"/><path class="cls-1" d="M24,2.5H6a6,6,0,0,0-6,6v18a6,6,0,0,0,6,6H24a6,6,0,0,0,6-6V8.5A6,6,0,0,0,24,2.5Zm3,26a1,1,0,0,1-1,1H4a1,1,0,0,1-1-1v-13H9.3a6,6,0,0,1,11.3,0H27Zm0-18a1,1,0,0,1-1,1H22a1,1,0,0,1-1-1v-4a1,1,0,0,1,1-1h4a1,1,0,0,1,1,1Z"/><path class="cls-1" d="M22.5,12.5H18.3a6,6,0,1,1-6.6,0H7.5a9,9,0,1,0,15,0Z"/></svg>
