<svg id="Layer_1" data-name="Layer 1" xmlns="http://www.w3.org/2000/svg" viewBox="0 0 849 118"><defs><style>.cls-1{fill:#f9f9f9;stroke:#f9f9f9;}.cls-1,.cls-2,.cls-3{stroke-miterlimit:10;stroke-width:3px;}.cls-2{fill:#ef9fb7;stroke:#ef9fb7;}.cls-3{fill:#e5b008;stroke:#e5b008;}</style></defs><title>index-banner</title><rect class="cls-1" x="1.5" y="26.5" width="128" height="31"/><rect class="cls-1" x="203.5" y="49.5" width="128" height="45"/><rect class="cls-1" x="406.5" y="51.5" width="128" height="39"/><rect class="cls-1" x="1.5" y="85.5" width="216" height="31"/><rect class="cls-2" x="214.5" y="72.5" width="128" height="44"/><rect class="cls-1" x="119.5" y="30.5" width="128" height="31"/><rect class="cls-2" x="1.5" y="52.5" width="201" height="43"/><rect class="cls-2" x="1.5" y="1.5" width="128" height="38"/><rect class="cls-3" x="95.5" y="1.5" width="128" height="31"/><rect class="cls-1" x="188.5" y="1.5" width="128" height="19"/><rect class="cls-1" x="219.5" y="11.5" width="223" height="41"/><rect class="cls-2" x="226.5" y="29.5" width="128" height="24"/><rect class="cls-3" x="314.5" y="44.5" width="128" height="31"/><rect class="cls-3" x="1.5" y="81.5" width="128" height="14"/><rect class="cls-1" x="314.5" y="64.5" width="128" height="40"/><rect class="cls-3" x="98.5" y="90.5" width="128" height="16"/><rect class="cls-1" x="406.5" y="1.5" width="128" height="37"/><rect class="cls-1" x="524.5" y="55.5" width="128" height="31"/><rect class="cls-2" x="479.5" y="1.5" width="128" height="51"/><rect class="cls-2" x="406.5" y="75.5" width="128" height="41"/><rect class="cls-2" x="701.5" y="86.5" width="146" height="30"/><rect class="cls-3" x="482.5" y="84.5" width="146" height="32"/><rect class="cls-1" x="593.5" y="96.5" width="112" height="20"/><rect class="cls-1" x="623.5" y="64.5" width="224" height="31"/><rect class="cls-2" x="631.5" y="56.5" width="128" height="33"/><rect class="cls-3" x="706.5" y="41.5" width="141" height="31"/><rect class="cls-3" x="406.5" y="36.5" width="128" height="17"/><rect class="cls-1" x="608.5" y="1.5" width="128" height="52"/><rect class="cls-1" x="719.5" y="24.5" width="128" height="37"/><rect class="cls-3" x="503.5" y="18.5" width="128" height="11"/><rect class="cls-3" x="719.5" y="1.5" width="128" height="38"/><rect class="cls-2" x="619.5" y="1.5" width="128" height="31"/><rect class="cls-2" x="196.5" y="1.5" width="271" height="14"/><rect class="cls-3" x="291.5" y="96.5" width="151" height="20"/></svg>
