<svg id="Layer_1" data-name="Layer 1" xmlns="http://www.w3.org/2000/svg" viewBox="0 0 583.1 342.8"><defs><style>.cls-1,.cls-8{fill:#00885f;}.cls-2{opacity:0.7;}.cls-3{opacity:0.8;}.cls-4{opacity:0.9;}.cls-5{opacity:0.3;}.cls-6{opacity:0.5;}.cls-7{opacity:0.2;}.cls-8{stroke:#00885f;stroke-miterlimit:10;stroke-width:0.5px;}</style></defs><title>index-shapes</title><path class="cls-1" d="M12.5,251.5c3.2,3.2,11.8,4.6,16,6s13.4-.9,18,0c12,2.4,17.7,7.6,30,7,10.6-.5,9.6-1,20-3,4.9-.9,23.3-2.2,28-4,3-1.1,10,0,11-3-2.6,1.3-5.7.6-9,.3-5.1-.4-10.5-2.2-14.6-3-15.1-3.3-29.2-13.3-30.7-29.9-.7-7.8,1.8-16,2.6-23.7s-.5-13.8,4.7-19.5c1.7,1.1,1.1,3.6,3.9,3.5,1.7-2.5,1.1-4.7.8-7.4s-.9-8.4.9-10.4,4.4,4.4,8.2,2.3c1.8-1,2.3-6.8,2.5-8.9,0,5.2.9,10,1.7,15s.5,10.2,1.1,15.2c-.1-4.5,1.2-8.5,1.6-12.9.5-6.1,0-12.4,0-18.6,0-12.6,3.8-24.5,2.6-37.2-.5-6.1-.4-12.5-1.6-18.4s-3-9-4.6-13.5c-2.8-8.1-3.4-20.8,1.3-28.5,2.5-4,8.5-6.1,13-9s7.7-6.7,7.7-12.9a32.8,32.8,0,0,1-11.6,13,43.7,43.7,0,0,1-8.1,4c-3.5,1.3-8.8,4.3-12.6,4.3s-8.1-2.7-11.5-4.2c-7.7-3.1-18.5-3.6-26.5-.9S43,56.3,35.2,53A29,29,0,0,1,19.6,37c.1,2.9.1,6.7,2,9.9A11.3,11.3,0,0,0,25,50.1a24.9,24.9,0,0,1,4.4,3.4c.5.6,1.9,1,9.3,4l1.2.5a19.1,19.1,0,0,1,8.3,6.4h0c0,5.8-1,11.4-1.3,17.1-.7,13.4,0,27-.6,40.5-.4,8-.7,16.3-1.2,24.3-.4,6.4-1.8,14.6.5,20.7,1.7-1.1,1.9-3.9,3.5-5.2,2.2,2.6,1.4,6,1.2,9-.2,4.7-.5,9.6-.2,14.3,1.7-3.3,2.5-8.2,2.8-11.9s-.8-7.7.9-11.1c3.2,2.4,2.7,8.5,3.4,12.1a32.4,32.4,0,0,1,1.7-3.5c1.2,2.5,1.5,8.4,4.2,9.6.6-2.3.4-5,1.2-7.2,2.1,2.9,3.9,7,5.7,10.4,2.7,5.3,2.9,10,2.9,15.9,0,15.3-5.6,31.7-15.6,43.5s-18.9,11.4-37.9,9.4Z" transform="translate(-10.9 -32.1)"/><path class="cls-1" d="M11.4,252.6c4.1,3.5,9.6,4.4,14.6,5.8s11,.5,17,.4,13.9,3.7,20.7,5.6,13.1,1.8,19.7,1.1c4.8-.5,9.4-1.9,14.1-2.7s10.4-1.2,15.6-1.8,8.4-1.4,12.7-2.3,9,.4,11.1-3.4c.6-1.1-.4-2.7-1.7-2.2-4.5,1.7-10.6.2-15.1-.8s-8.3-1.9-12.3-3.1c-7.8-2.5-15.4-7.1-20.1-13.9-5.8-8.4-5.3-17.8-3.7-27.5a107.8,107.8,0,0,0,1.6-13.2c.2-5.4.5-10.3,4-14.7H87.4c2.1,1.9,1.9,3.6,4.9,3.9a1.5,1.5,0,0,0,1.3-.7c2-3.9.9-7.6.7-11.7-.1-1.5-.4-6,1.4-5.5s2.1,2,3.2,2.5c6.2,2.4,6.7-6.5,7.1-10.4h-3a104.9,104.9,0,0,0,1.5,13.6c.8,5.6.8,11.1,1.4,16.7a1.5,1.5,0,0,0,3,0c.2-7.8,1.9-15.2,1.7-23.1a151.6,151.6,0,0,1,1.1-23.2c1-7.4,1.9-14.8,1.4-22.3S113,104.9,111,98c-3.4-11.9-10.7-26.2-2.7-38.3,3.4-5,10.4-6.5,15-10.3a15.9,15.9,0,0,0,5.9-12.4,1.5,1.5,0,0,0-2.8-.8c-5.1,9.2-12.1,13.3-21.5,17.4-6,2.6-9.8,3.9-16.1,1.1a48.9,48.9,0,0,0-12-4.1,44.6,44.6,0,0,0-12.6-.4c-4.8.5-9.1,2.4-13.8,3.2A27.4,27.4,0,0,1,21.1,36.6c-.6-1.4-3-1.4-2.9.4.2,4.9.6,9.8,4.5,13.2a37.9,37.9,0,0,0,7.7,5.5c4.2,2,9,3,12.9,5.7s3.5,6,3.1,10.6-.7,7.6-.9,11.4c-.6,14.7-.1,29.4-.8,44.2-.3,7.3-.6,14.5-1.2,21.8s-1.1,12.1.8,18a1.5,1.5,0,0,0,2.5.7c1.6-1.5,2.1-3.6,3.5-5.2l-2.4-.3c2.1,3.2,1.1,7.3.9,10.9s-.3,7.8-.1,11.6c0,1.4,2.1,2.2,2.8.8a35.2,35.2,0,0,0,2.7-9.7c.6-4.5-.5-9.3,1.2-13.6l-2.5.7c3,2.8,2.4,7.7,3,11.5a1.5,1.5,0,0,0,2.7.4c.5-1.2,1.1-2.3,1.7-3.5l-2.7-.4c1.5,3.6,1.4,8.1,4.8,10.5a1.5,1.5,0,0,0,2.2-.9c.5-2.4.6-4.8,1.2-7.2l-2.7.4c3.2,4.8,6.5,10.6,7.7,16.2s.9,12.6,0,18.6a66.9,66.9,0,0,1-14,32.7c-11.2,13.6-28.3,10.8-43.9,8.6-1.9-.3-2.7,2.6-.8,2.9,8.6,1.2,17.4,2.6,26.1,1.8s16.2-5.2,21.8-12.4a70.5,70.5,0,0,0,14-34.3c1.7-13.3-.8-24.3-8.2-35.5a1.5,1.5,0,0,0-2.7.4c-.6,2.4-.7,4.8-1.2,7.2l2.2-.9c-2.3-1.6-2.5-6.3-3.5-8.7a1.5,1.5,0,0,0-2.7-.4c-.6,1.1-1.1,2.3-1.7,3.5l2.7.4c-.7-4.4-.2-9.5-3.8-12.8a1.5,1.5,0,0,0-2.5.7c-1.3,3.4-.9,6.4-.9,9.9a32.5,32.5,0,0,1-2.7,12.7l2.8.8c-.2-5,0-10,.3-15,.2-3.4.4-6.2-1.5-9.1a1.5,1.5,0,0,0-2.4-.3c-1.4,1.6-2,3.7-3.5,5.2l2.5.7c-2.1-6.4-1-13-.5-19.5s.8-14.2,1.1-21.3c.7-14.4.1-28.8.8-43.2.2-3.5.6-7,.9-10.5s1.1-6,.3-8.2-6.2-5.9-9.3-7.3-6.9-2.2-9.8-4-3.3-2.5-4.7-3.7c-4-3.2-4.5-7.1-4.7-11.8l-2.9.4A30.8,30.8,0,0,0,40.9,56.3c5.9,1.1,11.2,0,16.9-1.6a41.2,41.2,0,0,1,19.8-.8c5.6,1.2,10.4,4.9,16,5.8s7.9-1.2,11.6-2.8c10.3-4.4,18.2-8.9,23.8-19l-2.8-.8c-.5,13.7-18,13.3-22.4,25.1s-.7,22.5,3.2,33.2c2.8,7.7,2.8,15.9,3.3,24s-.4,14.8-1.4,22.3a144.4,144.4,0,0,0-1.1,22.3,95.4,95.4,0,0,1-.1,11.1c-.4,4.3-1.5,8.5-1.6,12.9h3c-.5-4.6-.4-9.2-.9-13.7s-1.8-10.9-1.9-16.5c0-2-2.8-1.9-3,0s-.2,3.9-.9,5.5-2.6,1.5-4.6.1-2.9-1.7-4.5-.4-1.9,5.7-1.9,8.2.5,4,.5,5.9c-.1,4.7-.7,2.2-2.4.5a1.5,1.5,0,0,0-2.1,0,21,21,0,0,0-4.6,11.7c-.6,6.2-.9,12.3-2,18.5-1.7,10.1-1.9,20.1,4.1,28.9,4.8,7,12.1,11.8,20,14.7a114,114,0,0,0,16,4.2c4.7.9,10.4,2.2,15,.5l-1.7-2.2c-1.2,2.1-5.9,1.5-7.9,1.8s-3,.8-4.5,1.1a124.8,124.8,0,0,1-14.2,2c-8.5.9-16.7,3.1-25.2,4-6.6.6-12.9.5-19.2-1.5s-11.3-4.6-17.3-5.2-10.7,1.4-15.9.4-12.4-2.5-16.4-5.9C12.1,249.2,10,251.3,11.4,252.6Z" transform="translate(-10.9 -32.1)"/><path class="cls-1" d="M228.3,459.3" transform="translate(-10.9 -32.1)"/><g class="cls-2"><path class="cls-1" d="M281,116l.8-.3c19.5-6.3,44-10.3,45.3-35.5.9-17.5-16.5-42.4-34.7-44.4-21.2-2.3-46,12.6-60.5,26.6-6.2,6-13.4,15.4-14.5,24.1s-1.4,23.2,4.6,31.4c4,5.5,15.8,12.9,22.7,12s13.7-5.1,18.2-10a8.7,8.7,0,0,1,5-2h1c3,1,2.2,8,4.8,10.9a1.6,1.6,0,0,0,2.5-.2c2.1-3.4,1.9-7.1,3.7-10.7Z" transform="translate(-10.9 -32.1)"/></g><path class="cls-1" d="M531.7,130.8a2.8,2.8,0,0,1,2.6.7c6.8,6.6,20.5,5.2,28.1,1.3,10.6-5.5,17.4-17.2,17.4-29.1,0-26.4-25.7-49.9-46.5-62.1-12.1-7-27.3-8-41.1-8.8S456,31,443,35c-24.9,7.6-43.4,19.6-62.4,38.5-7.3,7.3-18.7,18.4-17.7,30.1,1.2,13.5,17.1,9.7,22.5.9a12.2,12.2,0,0,0,1.5-3.5l.9.9.2.2c2.5,2,4.8,4.8,7.5,3.6s2.3-4.5,3-6.8a2.8,2.8,0,0,1,1.2-1.5h.2l.7-.3c17.3-5.3,37.9-6,55.7-4.6s34.8,2.7,51.1,10c8.3,3.7,13,8.2,18.4,15.1a2.8,2.8,0,0,1,.5,1l.5,2v.5c.3,3.8-3.1,13.6,4.3,10.1l.5-.2Z" transform="translate(-10.9 -32.1)"/><path class="cls-1" d="M402.6,297.5h4.3" transform="translate(-10.9 -32.1)"/><path class="cls-1" d="M367.3,209a20.1,20.1,0,0,1-1.1-4.6c-.9-6.7-7.8-17.3-11.7-21.2-6-6.1-18-8.3-26.3-7.1a15.9,15.9,0,0,0-11.6,9c-1.7,3.5-1.5,7.8-3.3,11-5.6,9.8-13.9-1.8-21.1-1.6s-20.3,8.1-25.5,13.8-6.7,19.2-14.9,19.1-6.8-14.7-10.3-19.6c-5.7-8.2-15.5-10.6-24.6-10.6s-17.6-.8-25.4,2.8-15.8,10.4-23.4,7.4c-1.4-.5-3.2-2.1-4.7-2s-3,1.7-4.7,2.3-10.6-.2-4.7,2.9,17.7,1.2,25.2,1.5c17.5.6,34.9,6.1,50.9,13.4,8.7,3.9,12.8,11.4,16.7,19.8s4.5,13.5,14.4,12.6,16.6-5.5,25-7.4a297.2,297.2,0,0,1,35.3-5.1c8.7-.8,16.8-3.2,25.3-4.8,3.9-.7,7.9-1,11.6-2.5,8.6-3.4,11.3-12.1,10.7-20.8-.3-4.4-.1-3.7-1.5-7.8Z" transform="translate(-10.9 -32.1)"/><path class="cls-1" d="M368,208.8c-1.3-3.9-1.6-7.8-3.3-11.5a58.9,58.9,0,0,0-7-11.5c-4.8-6.3-11.8-9.3-19.6-10.3s-15.9,0-20.7,7c-3.2,4.6-2.1,11.6-6.2,15.4s-10.2-1.3-14.6-3c-6.5-2.5-13.6,1.1-19.1,4.3s-11.9,8.4-15.2,15.6c-1.6,3.4-3,7.6-5.9,10.1-5.6,4.8-8.9-1.1-10.4-6.1-1.9-6.8-2.9-12.2-8.9-16.7-7.8-5.8-17.7-5.6-26.9-5.6-5.2,0-10.5.1-15.5,1.7s-8.6,4.2-12.8,6.3a23.8,23.8,0,0,1-8.5,2.9c-3.4.3-5.3-1.5-8.3-2.3s-6.3,2.1-9.8,2.4-5.3,2.4-.2,4.5c8.5,3.5,18.9.5,27.8,1.1,13.3,1,26.3,4.7,38.7,9.6,5.7,2.3,11.7,4.5,16,9s6.1,8.6,8.3,13.3,4.3,12.5,11.3,13.6,12.3-1.5,17.7-3.5a111.3,111.3,0,0,1,18.9-5.2c14.1-2.6,28.4-3.1,42.4-6.2,6.8-1.5,14.2-2.2,20.8-4.3a17.4,17.4,0,0,0,9.6-7.1c4.3-6.7,4.3-16.2,1.5-23.5-.3-.9-1.8-.5-1.4.4,2.9,7.7,2.9,18.5-3.2,24.7-4.1,4.2-9.8,4.8-15.2,5.7s-11.3,2.4-16.9,3.6c-11.3,2.3-22.9,2.7-34.2,4.6a110.6,110.6,0,0,0-16,3.5c-5.3,1.7-10.3,4.1-15.7,5.3s-11,1.4-14.2-3.7c-2.1-3.2-3.2-7.1-4.9-10.5-3.6-7.4-8.2-13.8-15.7-17.4-18.4-8.9-39.2-14.4-59.6-13.2-4.7.3-9.7.7-14.2-.8-.6-.2-3.1-1-3.4-1.6s.2-.1,1-.3,2.7-.1,3.9-.4c2.8-.7,3.7-2.7,7.3-1.7,1.3.4,2.4,1.4,3.8,1.7,3.3.8,6.8-.1,9.9-1.3s7.7-4.1,11.6-6c5.8-2.8,12.1-3.3,18.5-3.3,10,0,21.2-.4,29,7.1,5.4,5.1,4.8,12.3,7.9,18.6,1.9,3.9,5.6,5.9,9.6,3.5s6.8-10.5,9.7-15.5c3.9-7,12.8-12.1,20.1-14.8,5.5-2,9.3-1.4,14.4,1.2,2.5,1.3,5.3,3,8.2,2.7s4.9-2.5,6.1-5c2.6-5.5,2-11.2,7.1-15.6,8.3-7.2,25.4-3.6,32.7,3.6a46,46,0,0,1,7.5,10.6c2.7,4.9,3.4,9.7,5,14.8C366.9,210.1,368.3,209.7,368,208.8Z" transform="translate(-10.9 -32.1)"/><g class="cls-3"><path class="cls-1" d="M248.7,171.8a10.4,10.4,0,0,0,7.3-.8c2.4-1.3,4.9-3,7.4-3.9a42.3,42.3,0,0,1,15-2.8c5.4,0,10.1.2,15.3,1.7s9.1,5,13.5,9.3c6.1,6,17.3-6.4,24.3-8.5s15.2.6,22.3,4.7,15.8,14.5,12.2,23c-7.6,18-95.5,6.7-95.5,6.7-3.3-2.2-8.1-3-11.7-4.6l-13-5.3c-4.5-1.9-6.5-4.8-9.3-8.8a41.9,41.9,0,0,0-9.4-9.9c-6.7-5.1-15.5-9.6-23.1-13.4s-14.5-8.2-21.8-12.1-12.6-3.8-20.4-4.2c-4.9-.3-5.6-2.4-.4-3.6,1.9-.4,4,.1,5.8-.6s2.4-2.8,3.9-3.9c4.9-3.6,5.1.8,8.2,3.8s6.9,3.9,10.1,4.3l23.3,2.7c7.4.9,15.7,2.6,22.4,6.1s3.8,13.8,12.8,19.8Z" transform="translate(-10.9 -32.1)"/><path class="cls-1" d="M248.5,172.5a13.2,13.2,0,0,0,9.3-1.7c6-3.2,11.8-5.4,18.7-5.7s11.5,0,16.8,1.6,8.4,4.5,12.1,8.1,8.8,2.9,13.8,0c8.4-4.9,14.5-10.3,25.1-6.9s22.1,11.7,21.6,22.9c-.2,5.1-4,7.6-8.4,9.2-10.3,3.9-22.3,3.9-33.1,4s-23.8-.6-35.7-1.6l-12.6-1.2c-1.7-.2-4-.1-5.7-.7s-5.8-2.5-8.7-3.5c-5.6-1.9-11.9-4-17-6.9s-6.7-6.7-9.7-10.5a44.2,44.2,0,0,0-8.4-8.1c-8.5-6.4-18.3-10.6-27.6-15.7s-17.4-11.3-27.5-12.9c-2.3-.3-4.5-.5-6.8-.6a21.2,21.2,0,0,1-3.2-.2c-6.5-1.6.9-2,2.5-2.3s2.8-.2,4.2-1.2a6.8,6.8,0,0,0,.9-.9l1.3-1.7h5.6c1.1.6,2.3,3.1,3.4,3.9a18,18,0,0,0,5.4,2.7c5,1.7,10.6,1.7,15.8,2.3,6.8.8,13.7,1.4,20.4,2.8s13.3,2.6,16.3,7.7,3.5,15.1,11,17a.8.8,0,0,0,.4-1.4c-8.7-2.2-6.5-14.9-12.9-19.5-8.1-5.9-20.8-6.5-30.4-7.6-6.4-.7-13.4-.8-19.6-2.6a14.5,14.5,0,0,1-8-5.2c-.8-1.1-1.5-2.6-2.8-3.3s-4.1.7-5.8,1.9l-.7.9a3.3,3.3,0,0,1-2.4,1.3c-2.3,1.2-2.9.9-5.2,1.4s-3.2.7-3.8,1.6c-3,4.4,10.6,3.8,12,4,13,1.4,24.2,10.6,35.6,16.4s22.4,11.1,29.9,21.1c2.2,2.9,4,6.1,7,8.4s9.1,4.3,13.5,6.1c2.6,1,5.1,2,7.7,2.9s4.9,2.4,7.3,3l1.6.2c3.3.6,6.8.8,10.1,1.1,12.6,1.2,25.3,2.1,38,2.2s61.3.9,44.1-25.1c-5.1-7.8-14.9-13.9-24.2-15s-16.1,6.7-25.1,10.1c-6.2,2.3-8.8-3-13.2-6.3s-8.8-4.4-13.7-5a55.2,55.2,0,0,0-18,.4,38.3,38.3,0,0,0-8.2,2.6c-4.3,2-7.4,4.9-12.6,4C247.9,170.9,247.5,172.3,248.5,172.5Z" transform="translate(-10.9 -32.1)"/></g><path class="cls-1" d="M453.2,221.9c2.6,4.9,1.2,11.4-3.5,13.6s-11,2.3-14.1,6.7-2.8,7.6-6.7,11.1-9.8,7.4-14.7,9c-12,4.1-28.3,1.6-40.9,1.4s-24.4-2.9-35.5-.6c-6.6,1.4-12.4,5.4-19.1,6.3-4.9.7-17,.1-18.6,0h-.3l-3.1-.9h-.4c-2.8,0-3.3.5-5.8,0-4.6-.9-10.5-2.5-13.3-5.9a.3.3,0,0,1,.1-.5s-5.3,3.8.1-.1c1.8-1.3,6.4,2,8,.4s-1-3-.5-3.5,1.6.6,2,1a12.3,12.3,0,0,0,6.5,3.4,1.5,1.5,0,0,0,1.5-.9h0a1.5,1.5,0,0,1,1.4-.9c9.7.1,18.5-6.7,28.3-7.1,6.8-.3,13.7-.7,20.4-2.6,4.9-1.4,9.3-3.3,14.4-3.6s8.5.9,12.6.4,10.4-3.1,14.4-5.2-24.9-12.8-24-15.9-1-4-1-9,2.5-7.4,1-12c-.5-1.5-5.1,2.6-3.5-7.5.1-.3-1.3-2.8-1-3v-2a13.4,13.4,0,0,1,3-1c2.2,0,26.6-7,36-9.9s15.3-8.2,23.3-10.9c0,0,8.2-3.7,13.2,7.3S453.2,221.9,453.2,221.9Z" transform="translate(-10.9 -32.1)"/><g class="cls-3"><path class="cls-1" d="M427,166.7c3.6-3.5,10.5-5.2,14.9-7.4a82.5,82.5,0,0,1,16.9-6.7c10.6-2.7,15.8-3.1,27.7-3.1,10,0,8.5-.5,16,1,5,1,9.1,1.6,15,4l15.6,6.5a89.7,89.7,0,0,1,11.8,6.5c11,6.7,19.9,16.1,30.9,22.7a1.8,1.8,0,0,1,.9,1.2h0a1.8,1.8,0,0,1-.8,1.9c-7.5,4.6-16.9-5.7-24.4-9.8-9-5-20.1-8.6-31-14-8-4-16.9-6-24.9-3h-.2c-2.3,1.1-38,19.1-42.9,24.9S410.4,182.9,427,166.7Z" transform="translate(-10.9 -32.1)"/><path class="cls-1" d="M427.5,167.2c4.9-4.3,12.1-6.2,18-8.9a86.6,86.6,0,0,1,22.3-6.9c6.8-1.2,13.6-1.1,20.5-1.2a65.5,65.5,0,0,1,13.4.8,127.1,127.1,0,0,1,40.6,15.7c7,4.2,13.3,9.2,19.7,14.3,2.3,1.9,4.7,3.7,7.1,5.4s4.4,2.3,5,3.4-.5,3.4-1.5,3.7a7.1,7.1,0,0,1-3.8-.4c-6.1-1.8-10.9-6.9-16.3-10s-12.5-6-18.9-8.6c-11.6-4.9-25.4-14.2-38.5-8.6-5.5,2.4-10.9,5.6-16.2,8.4-7.7,4.1-15.6,8.2-22.8,13.3-2.1,1.5-4,4-6.6,4.5s-8.2-.8-11.6-2.2c-9.4-3.8-19.8-12.9-10.5-22.6.7-.7-.4-1.8-1.1-1.1-13.3,13.8,9,28.3,22.3,27.4,2.5-.2,3.6-1.1,5.4-2.7,3.3-2.9,7.4-5.2,11.2-7.4,8.7-5.1,17.6-9.8,26.6-14.4,4.4-2.2,8.5-3.6,13.6-3.3,9.6.6,18.1,6.1,26.8,9.8s16.5,6.6,23.9,11.8c4.6,3.3,10.3,8.3,16.4,7.7,2.5-.2,6.1-1.9,4.5-4.9s-5.5-3.8-7.3-5.1c-4.2-3-8.1-6.4-12.2-9.6a141.7,141.7,0,0,0-43.2-23.1c-13.3-4.5-27.7-4.7-41.6-3.3a84.8,84.8,0,0,0-24.6,6.3c-4.3,1.8-8.5,4-12.9,5.7a30.3,30.3,0,0,0-8.9,4.9C425.7,166.8,426.8,167.9,427.5,167.2Z" transform="translate(-10.9 -32.1)"/></g><g class="cls-3"><path class="cls-1" d="M572.7,194.4a.4.4,0,0,0-.1.7c1.7.8,4.2,1.4,5,3s.3,3.4,1.6,5.8,1.6,1.3,1.8,1.1-.3-1.3,0-2,.3-.8,1-1,8,2.5,9.9,2.3,2.1-.4,2.1-1.3-2-4.1-4.8-5.1-8-1.2-11.5-5.5l-2.2,1.7Z" transform="translate(-10.9 -32.1)"/></g><path class="cls-1" d="M459.5,202.5c1.9-4,2.7-.8,6-3s5.4-3,7-6c4-7.5,18-9,23.3-1.5,1.8,2.5,2.6.4,1.1,3.8-.7,1.6-1.8,2.3-2.4,4.1s-6.5,4.5-7,7.7-.7,3.5-3,3-3.2-.5-5-1-3.6,1.9-5,2c-3.3.3-4.6-6.2-8-6s-2-1-9-1Z" transform="translate(-10.9 -32.1)"/><path class="cls-1" d="M460.1,202.9c1.4-2.4,2.5-1.4,4.5-2.1a20.5,20.5,0,0,0,5.5-3.5c3.8-3.1,5.1-7.2,10.3-8.8a14.2,14.2,0,0,1,14.5,3.6c1.8,1.7,2.1,2.2.8,4.4s-2.4,4.4-4.3,5.9a17.7,17.7,0,0,0-3.6,3c-.8,1.1-.6,3.3-1.4,4s-5.5-.8-7.3-.7-3.6,2.8-6.8.7-2.5-4.2-5.8-4.8a58.8,58.8,0,0,0-9-1l.5,1.3,2-2A.8.8,0,0,0,459,202l-2,2a.8.8,0,0,0,.5,1.3c5.1.1,9.7.6,13.1,4.5s5.5.4,10.5.9,5.2,2,6.9-1.7c.9-1.9,1.5-3.3,3.2-4.6a17.9,17.9,0,0,0,2.8-2.2,29.6,29.6,0,0,0,3.5-5.9c1.7-3.3-.7-5-3.6-7.1a15.6,15.6,0,0,0-11.7-2.5,15.1,15.1,0,0,0-10.5,6.6c-2.9,4-5.7,4.9-9.9,6.5-1.7.6-2.1.8-3.1,2.5A.8.8,0,0,0,460.1,202.9Z" transform="translate(-10.9 -32.1)"/><path class="cls-1" d="M443.5,227.5c-3.2,2.6-4.1-1.1-8.6-.6s-4.8-1.3-7.4-2.4c-7-3-14.6-.6-18-5-2.1-2.7,1.7-13.5-2-14s-1,11-12,5c-8-9,4-12-8-12-5.6,0-13.8-9.6-17-16-1-2-3-10.4,2-12,7.4-2.3,16,1,17-3s-7-4-6-9,10-9,22-9,9.7,6.2,16,9,14.3-6.8,22-6c10,1,13,12,19,13,7.8,1.3,13.8-2.7,22,0,6,2,10.8,9.3,13.7,14.5s.6,18.3-2.3,14.9c-11.1-12.7-32.7,4.6-39.4,12.6-1.5,1.8-2.7,8-4,9a26.6,26.6,0,0,0-5,6Z" transform="translate(-10.9 -32.1)"/><path class="cls-1" d="M443.1,226.9c-2.3,1.5-3.6,0-5.5-.5s-2.8.1-4.3-.1c-3.1-.3-5.5-2.7-8.6-3.5s-7.6-.5-11.2-1.6c-5.2-1.6-3.8-6.4-3.6-10.5.1-1.8.1-6.8-3.1-5.8s-1.3,7.1-6.7,6.5-7.1-5.2-6.5-9.5c.2-1,.6-1.9.1-2.8s-1.8-1-2.6-1.1-4.1,0-6.1-.8a18.8,18.8,0,0,1-5.8-4.2c-3.5-3.4-14.5-16.2-7.2-21.3,4.3-3,14.8,1.8,17.9-3s-3.7-5.4-5-7.7c-4.6-8.1,18.5-10.8,22.3-10.6s6.8,1,9.1,4.1a18,18,0,0,0,2.9,3.6c4.4,3.6,9.5.9,13.8-1.3s8.2-4.2,12.8-2.9,6.7,4.1,9.3,7c4,4.4,6.8,6.2,13.1,5.7,4.4-.3,8.6-1.5,13-.9,6,.9,10.1,5,13.4,9.8,1.9,2.8,3.6,5.4,3.9,8.8s.5,6.7-.7,8.8-1.3,1-3-.3a13.2,13.2,0,0,0-3.4-2,15.7,15.7,0,0,0-8.1-.8c-6.8.9-13.1,4.8-18.4,8.9s-8.9,7.5-11.1,13.4-7,10.3-10.7,14.9c-.6.7.5,1.8,1.1,1.1s2.7-3.2,3.9-4.9,4.7-5,6.1-7.8,1.9-6.2,4.3-8.8a56.3,56.3,0,0,1,8.7-7.7c6.2-4.5,15.3-9.9,23.3-7,3.1,1.2,6.3,7,8.4,2.1,4.9-11.2-4.5-27-15.8-29.7-8.8-2-18.5,4.3-25.5-3.2-4.4-4.6-8.7-9.9-15.8-9.4s-16.4,10.9-22.6,4c-3.4-3.8-4.7-6.3-10.4-6.9-7.4-.7-16.8.7-22.8,5.4-3.3,2.6-4.3,6.1-.7,9,1.5,1.2,5.8,2.6,2,5.3-1.2.8-4.3.2-5.7.2-3.3,0-8.3-.4-10.9,2s-2,9.1-.3,12.6c2.8,5.8,8.6,13.2,14.8,15.3a13.6,13.6,0,0,0,4,.5c2.3.1,3.2-.2,3.3,1.9s-.7,3.8.4,6.3c1.7,4,7.9,7.8,11.7,4.1.8-.8,2-5,2.8-5.2s.9,9.5,1,10.7c.7,7.8,12.5,5.8,17.7,7.5,1.9.6,2.7,1.8,4.4,2.5s3,.5,4.8.5c3.5.1,5.8,2.6,9,.5C444.7,227.6,443.9,226.3,443.1,226.9Z" transform="translate(-10.9 -32.1)"/><g class="cls-4"><path class="cls-1" d="M143.5,103.5c1.4,0,1.3,1.8,1.2,3.1s-1.8,1.9-3.2,1.7-3.3-.9-2.4-2.8a3.5,3.5,0,0,1,3-1.8" transform="translate(-10.9 -32.1)"/><path class="cls-1" d="M143.5,104.3c.7.1.5,1.7.4,2.2s-1.1,1.2-2,1.1-2.1-.2-2.4-1,1.6-2.1,2.5-2.2,1-1.6,0-1.5-4.1,1.3-4,3.6,2.3,2.5,3.9,2.6,3.3-.6,3.4-2.5,0-3.6-1.9-3.8-1,1.4,0,1.5Z" transform="translate(-10.9 -32.1)"/></g><g class="cls-2"><path class="cls-1" d="M159.5,102.5a3.5,3.5,0,0,1,3,2c.6.9-.3,2.6-1.5,3.2s-3.1-.4-3.7-1.5-1.1-1.2-.8-2.2a2.1,2.1,0,0,1,2.1-1.4Z" transform="translate(-10.9 -32.1)"/><path class="cls-1" d="M159.5,103.3c1.1.1,2.7,1.1,2.3,2.3a1.9,1.9,0,0,1-3,1.1c-.6-.4-1.8-1.8-1.6-2.6s1.5-.9,2.2-.9a.8.8,0,0,0,0-1.5c-1.7,0-3.7.5-3.8,2.5s1.9,3.8,3.4,4.2a3.5,3.5,0,0,0,4.3-3c.3-2.1-2.1-3.7-3.9-3.8S158.5,103.2,159.5,103.3Z" transform="translate(-10.9 -32.1)"/></g><g class="cls-5"><path class="cls-1" d="M160.5,111.5a2.6,2.6,0,0,1,2.6,3.1v.3c-.3,1.5-1.7,2-3.2,1.7-3.7-.6-2.3-4.1.7-5.1Z" transform="translate(-10.9 -32.1)"/><path class="cls-1" d="M160.5,112.3a1.9,1.9,0,0,1,1.7,2.7c-.5,1.2-2.1,1.1-3.1.7a1.1,1.1,0,0,1-.6-1.6,3,3,0,0,1,.8-1c.2-.2.9-.8,1.2-.8a.8.8,0,0,0,0-1.5,4.2,4.2,0,0,0-2.2,1.1,4.2,4.2,0,0,0-1.3,1.9c-.5,1.7.7,3,2.3,3.4s4.1-.1,4.5-2.3a3.4,3.4,0,0,0-3.2-4.2C159.5,110.7,159.5,112.2,160.5,112.3Z" transform="translate(-10.9 -32.1)"/></g><g class="cls-2"><path class="cls-1" d="M149.1,114.2a2.2,2.2,0,0,1,3,1.2c.7,1.7.4,3.9-1.7,4.1s-3.8-1.7-2.2-4.4a2.1,2.1,0,0,1,.9-.8Z" transform="translate(-10.9 -32.1)"/><path class="cls-1" d="M149.4,114.9c2.3-1,3.4,3.9.5,3.8-.8,0-1.7-.2-1.8-1.1a3.1,3.1,0,0,1,1.3-2.8c.9-.4.1-1.7-.8-1.3a4.5,4.5,0,0,0-1.9,4.8c.5,1.7,2.7,2.1,4.2,1.7s2.4-2.5,2.1-4.2a3.1,3.1,0,0,0-4.4-2.3C147.8,114,148.6,115.2,149.4,114.9Z" transform="translate(-10.9 -32.1)"/></g><g class="cls-2"><path class="cls-1" d="M164.5,122.5c3.1-.2,2.3,5-.4,5a2.4,2.4,0,0,1-2.3-2.8c.3-1.4.4-2.1,1.6-2.3Z" transform="translate(-10.9 -32.1)"/><path class="cls-1" d="M164.5,123.3c1.9-.1,1.4,2.7.3,3.4a1.4,1.4,0,0,1-1.6-.2,1.9,1.9,0,0,1-.5-2c.1-.5.2-1,.7-1.2h1.1a.8.8,0,0,0,0-1.5,3.7,3.7,0,0,0-2.2.4,3.5,3.5,0,0,0-1.1,2.4,3.1,3.1,0,0,0,3.8,3.6c3-.9,3.3-6.6-.4-6.4C163.5,121.8,163.5,123.3,164.5,123.3Z" transform="translate(-10.9 -32.1)"/></g><g class="cls-6"><path class="cls-1" d="M150.5,125.5c2,1,.4,3.5-1.1,3.9s-2.4-3.9-.9-3.9Z" transform="translate(-10.9 -32.1)"/><path class="cls-1" d="M150.1,126.1c1.1.6.4,1.8-.5,2.3s-1.2,0-1.3-.8a2.4,2.4,0,0,1,0-1.1l.2-.4h2a.8.8,0,0,0,0-1.5c-1,0-2.4-.3-3.2.5a3.5,3.5,0,0,0-.1,3.8c2,3.4,7.4-2.1,3.6-4.2C150,124.4,149.3,125.7,150.1,126.1Z" transform="translate(-10.9 -32.1)"/></g><g class="cls-5"><path class="cls-1" d="M157.9,130.5c1.9.9,2.2,4.4-.4,4.3s-3.2-.9-3-2.3.9-2.2,2-2Z" transform="translate(-10.9 -32.1)"/><path class="cls-1" d="M157.5,131.1a2.1,2.1,0,0,1,1.1,2c-.1,1-1.1,1-1.8.7s-2-1.2-1.1-2.3,1.5-.3,2.2-.4a.8.8,0,0,0,0-1.5h-1.8a2.7,2.7,0,0,0-2,1.7c-.8,1.9.5,3.4,2.3,3.9s3.3.1,3.7-1.7a3.6,3.6,0,0,0-1.8-3.8C157.4,129.4,156.6,130.7,157.5,131.1Z" transform="translate(-10.9 -32.1)"/></g><g class="cls-6"><path class="cls-1" d="M168.6,148.9c2.6-.2,2.6,4.4.6,5.1s-3.9-4.7-1.7-4.5Z" transform="translate(-10.9 -32.1)"/><path class="cls-1" d="M168.6,149.7c2.6-.1,1,5.3-1.1,3.4a2.4,2.4,0,0,1-.5-2.5c.2-.4.5-.2.8-.4l1.1-.6c.9-.5.1-1.8-.8-1.3l-1,.5c-.2.1.4-.1-.2,0l-.5.2a2.3,2.3,0,0,0-1.1,1.7c-.3,1.6.4,3.5,2.1,4.1,4.4,1.4,5.4-6.8,1.1-6.6C167.7,148.2,167.7,149.7,168.6,149.7Z" transform="translate(-10.9 -32.1)"/></g><g class="cls-2"><path class="cls-1" d="M151.9,171.7c2,.4,1.5,2.5,1.1,4.1s-1.4,2.1-2.9,1.8c-4.2-.6-3-6.1.5-6.1Z" transform="translate(-10.9 -32.1)"/><path class="cls-1" d="M151.7,172.4c1.5.4,1,3.1.2,4s-3,.3-3.5-.8a2.5,2.5,0,0,1,.6-2.8c.8-.8,1.7-.6,2.7-.4s1.4-1.3.4-1.4-3.4-.3-4.6,1.4a3.8,3.8,0,0,0,.4,5.1c1.6,1.4,4.5,1.5,5.6-.6s1.3-5.1-1.3-5.9A.8.8,0,0,0,151.7,172.4Z" transform="translate(-10.9 -32.1)"/></g><g class="cls-6"><path class="cls-1" d="M154,184.3c2.1.4,3.2,3.9.5,4.2s-4-2.9-2-3.9Z" transform="translate(-10.9 -32.1)"/><path class="cls-1" d="M153.8,185a2,2,0,0,1,1.6,1.7c.1,1-1,1.1-1.7.9s-1.6-1.2-1.2-2,1.2-.5,1.8-.6.5-1.6-.4-1.4l-1.6.3a2.3,2.3,0,0,0-1.4,1.9,3.4,3.4,0,0,0,2.7,3.4c1.6.3,3.3-.5,3.3-2.2a3.5,3.5,0,0,0-2.7-3.3C153.2,183.4,152.8,184.8,153.8,185Z" transform="translate(-10.9 -32.1)"/></g><g class="cls-6"><path class="cls-1" d="M144.1,183.6c1.1.3,2.2.3,2.5,1.8a2,2,0,0,1-1.3,2.3,2.8,2.8,0,0,1-3-1.2c-.4-.7-.4-2.7.7-2.8Z" transform="translate(-10.9 -32.1)"/><path class="cls-1" d="M143.9,184.3c.8.2,1.9.2,2,1.2s-1.2,1.7-2.2,1.2a1.7,1.7,0,0,1-.8-2c.2-.6.5-.4,1.2-.4a.8.8,0,0,0,0-1.5,4.2,4.2,0,0,0-1.5.1,2,2,0,0,0-1.2,1.7,3.1,3.1,0,0,0,2.1,3.7,2.8,2.8,0,0,0,3.9-2.3,2.7,2.7,0,0,0-.8-2.3,5.3,5.3,0,0,0-2.3-.9A.8.8,0,0,0,143.9,184.3Z" transform="translate(-10.9 -32.1)"/></g><g class="cls-2"><path class="cls-1" d="M147.5,192.5c1.9.9,3.7,4.2.5,4.6s-4.4-4-1.2-4.9Z" transform="translate(-10.9 -32.1)"/><path class="cls-1" d="M147.1,193.1a3.5,3.5,0,0,1,1.9,2.2c.1,1-1.2,1.2-1.9.9a2.1,2.1,0,0,1-1.3-2,1.3,1.3,0,0,1,.6-1.1l.4-.2q-.3-.1,0,0l.5.2c.9.3,1.3-1.1.4-1.4a2.1,2.1,0,0,0-2.2.3,2.8,2.8,0,0,0-1.2,1.9,3.6,3.6,0,0,0,2.3,3.7c1.5.5,3.7-.1,3.9-1.9s-1.3-3.2-2.6-4S146.3,192.7,147.1,193.1Z" transform="translate(-10.9 -32.1)"/></g><g class="cls-6"><path class="cls-1" d="M166.1,194.1c-1.3,0-3.4-.4-3.5,1.5s2,3.2,3.6,3.3a2.2,2.2,0,0,0,2.4-2.8,3.9,3.9,0,0,0-3.2-2.3" transform="translate(-10.9 -32.1)"/></g><g class="cls-4"><path class="cls-1" d="M154.5,194.5c-1.2.2-1.2,2-1.4,3.2a1.7,1.7,0,0,0,1.8,2,3.3,3.3,0,0,0,2.5-2.2c.4-1.8-.3-3.1-2-3Z" transform="translate(-10.9 -32.1)"/><path class="cls-1" d="M154.3,193.8a2.3,2.3,0,0,0-1.5,1.6,8.5,8.5,0,0,0-.4,2.9c.2,2.1,2.5,2.7,4.1,1.7a3.9,3.9,0,0,0,1.6-4.8c-.7-1.5-2.2-1.4-3.6-1.4a.8.8,0,0,0,0,1.5,4.8,4.8,0,0,1,1.8.1c.9.4.7,2,.2,2.6s-2.6,1.7-2.6-.1.1-2.4.8-2.6A.8.8,0,0,0,154.3,193.8Z" transform="translate(-10.9 -32.1)"/></g><g class="cls-5"><path class="cls-1" d="M147.7,205.9c2,.7.7,3.7-1.3,3.3s-1.6-.6-1.3-1.7a2.6,2.6,0,0,1,1.6-2Z" transform="translate(-10.9 -32.1)"/><path class="cls-1" d="M147.5,206.6c.6.2.5.9.2,1.3a1.2,1.2,0,0,1-1.5.4c-.7-.3-.2-1.3.1-1.7l.4-.4c-.1.1-.3-.1.1.1l.7.3c.9.4,1.3-1.1.4-1.4a2.7,2.7,0,0,0-1.4-.4,2.8,2.8,0,0,0-1.7,1.5c-.7,1.4-.6,3,1.1,3.5a2.6,2.6,0,0,0,3.3-1.4,2.3,2.3,0,0,0-1.3-3.2C147,204.8,146.6,206.2,147.5,206.6Z" transform="translate(-10.9 -32.1)"/></g><g class="cls-6"><path class="cls-1" d="M150.5,214.5c-3,0-1.9,4.9,1.3,4.8a2.5,2.5,0,0,0,2.2-2.7,1.9,1.9,0,0,0-.8-1.6c-.8-.6-.8-.4-2.8-.4Z" transform="translate(-10.9 -32.1)"/><path class="cls-1" d="M150.5,213.8a2.5,2.5,0,0,0-2.4,3.1,3.8,3.8,0,0,0,3.4,3.2,3.3,3.3,0,0,0,3.2-4.5,3,3,0,0,0-1.8-1.7,5.6,5.6,0,0,0-2.5,0c-.9.3-.5,1.8.4,1.4a4.7,4.7,0,0,1,1.6,0,1.4,1.4,0,0,1,.8.6,1.8,1.8,0,0,1-1.9,2.6,2.4,2.4,0,0,1-1.7-1.8c-.2-.8.1-1.5.9-1.5S151.5,213.7,150.5,213.8Z" transform="translate(-10.9 -32.1)"/></g><g class="cls-4"><path class="cls-1" d="M159.8,220.8c1.8,0,1.9,5.2-.8,4a3.2,3.2,0,0,1-2-2.2c-.1-1,.5-2.2,1.5-2.1Z" transform="translate(-10.9 -32.1)"/><path class="cls-1" d="M159.8,221.5c.7.1.8,2.5,0,2.7s-.9-.3-1.1-.5a1.7,1.7,0,0,1-.9-1.7c.2-1.1,1-.7,1.8-.6s1.3-1.3.4-1.4a5.7,5.7,0,0,0-1.9-.3,2.3,2.3,0,0,0-1.8,2,3.6,3.6,0,0,0,3.5,4c2.8-.1,2.7-5.5,0-5.7C158.8,219.9,158.9,221.4,159.8,221.5Z" transform="translate(-10.9 -32.1)"/></g><g class="cls-4"><path class="cls-1" d="M401.9,295.9c41.3-7.5,68.4,67.1,20.3,76.8-44.8,9.1-76.5-66.8-28.5-75.5Z" transform="translate(-10.9 -32.1)"/><path class="cls-1" d="M402.3,297.4c16.3-2.7,30.5,8,38,21.8s9.5,30.4-.4,42.2c-11.1,13.3-31.9,13.1-45.6,4.2s-22.5-24-22.9-39.6c-.2-8,2.4-16,8.7-21.2s14.5-6.1,22.3-7.4c1.9-.3,1.1-3.2-.8-2.9-7.8,1.3-15.7,2.3-22.3,7.1a27.2,27.2,0,0,0-10.6,18.7c-2.2,17,7.4,34.9,20.5,45.3s34.7,13.3,49.1,1.7,13.3-29.8,7.3-44.4c-7.3-17.5-24-31.7-43.9-28.4C399.6,294.8,400.4,297.7,402.3,297.4Z" transform="translate(-10.9 -32.1)"/></g><g class="cls-5"><path class="cls-1" d="M283.5,294.5c-34,9.5-34.1,61.1.6,75.3,31.9,13.1,55.1-19.3,47.1-48.9-5.4-20.1-26.6-20.5-42-27.2Z" transform="translate(-10.9 -32.1)"/><path class="cls-1" d="M283.1,293.1c-32.6,9.6-34.1,54.5-8.8,73,14.5,10.6,34.7,11.4,47.8-1.9s16.5-34.6,8-50.1c-4.7-8.5-13.5-12.8-22.4-15.7-4.9-1.6-10-3-14.9-4.8s-5.7-1.1-9.7-.5c-1.9.3-1.1,3.2.8,2.9s4.1-.8,5.9-.3c3.8.9,7.5,2.7,11.3,3.8,7.5,2.3,15.6,4.6,21.5,10,12.6,11.4,10.4,33.9,1.9,47-10.1,15.6-29.2,18.7-44.9,9.6-12.4-7.2-19.8-20.8-20.1-35.1-.3-15.9,8.7-30.4,24.3-35C285.7,295.4,285,292.5,283.1,293.1Z" transform="translate(-10.9 -32.1)"/></g><g class="cls-6"><path class="cls-1" d="M35.5,351.5c4,12,14.5,11,22.8,15.5a38.2,38.2,0,0,0,30.1,2.3c19.5-6.9,33.5-30.6,25-50.9-7-16.8-34.9-25.2-52-21.4-19.8,4.5-32.3,32.7-27.9,51.3Z" transform="translate(-10.9 -32.1)"/><path class="cls-1" d="M34.1,351.9c3.1,8.4,9.3,11.2,17.3,13.9,4.3,1.4,8.1,3.8,12.4,5.2a40.2,40.2,0,0,0,16.9,1.6c18.5-2.1,34-18.3,36.5-36.6s-8.8-31-24.9-37.2-33.7-6.8-46.1,5.3c-6.8,6.7-11.4,15.7-13.6,24.9-1.8,7.7-2.7,16.4,1.7,23.2,1,1.6,3.6.1,2.6-1.5-7.1-11-.4-28.9,6.4-38.6,4.4-6.2,10.5-11.6,18-13.5s14.5-1.1,21.4.4c15.1,3.4,30.2,12.5,31.7,29.3s-9.9,33.1-25.1,39.1c-11.3,4.5-21.7,2-32.3-2.7-8.1-3.6-16.5-4.2-20-13.6C36.3,349.3,33.4,350.1,34.1,351.9Z" transform="translate(-10.9 -32.1)"/></g><g class="cls-3"><path class="cls-1" d="M150.5,349.5c17,11,14.8,10,24,12,14,3,13.2.2,22.9-3.2,19.5-6.9,33.5-30.6,25-50.9-7-16.8-34.9-25.2-52-21.4-19.8,4.5-32.3,32.7-27.9,51.3Z" transform="translate(-10.9 -32.1)"/><path class="cls-1" d="M149.7,350.8c5.9,3.8,12.1,9,19,11s14.7,3.9,21.4,1.2c8.7-3.5,17.1-6.9,23.8-13.7a43.3,43.3,0,0,0,12.3-26c1.8-20.5-14.2-33.3-32.6-37.9-8.6-2.1-18.6-3-27.1.2s-15,10.1-19.4,17.8-8.2,20.2-6.9,30.7c.8,6.2,5.5,11.1,8.8,16.2,1.1,1.6,3.7.1,2.6-1.5-2.5-3.8-6.1-7.7-7.8-11.8-2.8-6.6-.4-16.6,1.8-23,2.9-8.6,8.2-17.1,15.8-22.3s15.3-5.6,23.5-4.7c17.7,1.9,37.5,11.8,38.4,31.7.4,9.7-3.5,19.2-9.8,26.5s-13.9,10.3-22.3,14c-14.5,6.5-28.4-3.4-40.1-11C149.6,347.2,148.1,349.7,149.7,350.8Z" transform="translate(-10.9 -32.1)"/></g><g class="cls-7"><path class="cls-1" d="M528.5,291.5c19,3.9,36.7,9.5,39.9,33.6,2.1,16.2-12.4,40.6-29.2,42.3s-42.5-13-43.8-32.1c-.9-13.3,11.4-44.1,28.2-42.8Z" transform="translate(-10.9 -32.1)"/><path class="cls-1" d="M528.1,292.9c13.8,2.9,29.1,7,35.6,21s1.3,33.5-10.6,44.7-31.1,7.5-43.7-2.5c-6.2-4.9-11.5-11.8-12.4-19.9-.7-6.1,1.1-12.5,3.1-18.3s6.5-14.6,12.3-19.7,10.5-4.2,16.5-5.4c1.9-.4,1.1-3.3-.8-2.9-5.8,1.2-11.2,1.1-16.2,4.8s-10.3,11.8-13.3,18.8-5,13.7-4.8,20.8,4.7,15.6,10.5,21.2c11.2,10.7,30.9,18.4,45.2,9.5s22.9-27.4,19.7-43.5c-4-20.7-21.8-27.8-40.4-31.6C527,289.7,526.2,292.6,528.1,292.9Z" transform="translate(-10.9 -32.1)"/></g><path class="cls-8" d="M575.5,194.5" transform="translate(-10.9 -32.1)"/></svg>
