<svg id="Layer_1" data-name="Layer 1" xmlns="http://www.w3.org/2000/svg" viewBox="0 0 817.9 531.6"><defs><style>.cls-1{opacity:0.9;}.cls-2{fill:#b6e0c8;}.cls-3{fill:#00885f;}.cls-4{opacity:0.7;}.cls-5{fill:#80c3bc;}.cls-6{fill:#1b7b7d;}</style></defs><title>leaf-background</title><g class="cls-1"><path class="cls-2" d="M64.1,471.7c17.4,46.9,54.1,60.4,102.7,72.6s99.9,6.4,148.6-5.3c39.8-9.5,79.9-20.4,115.8-39.9,8.9-4.8,29.4-21,32.4-22.6s-3.7-3.8-21.9-4.6c-36-1.6-38.8-13-63.9-27-14.6-8.2-35.5-16.4-49.2-24.9-5.2-3.2,10.1-18.1,16.2-18.8,40.8-4.4,73.6-3,110-12.6,19.3-5.1,38.6-11.6,54.9-23.1s29.4-28.8,32-48.6c-47-8.3-95.8,22.9-141.5,9.1,23.6-27.4,61.4-38.3,87.6-63.1a109.8,109.8,0,0,0,33.1-91.2c-60.5,18.8-116.1,50.6-170.1,83.7-7,4.3-14.2,8.7-22.7,8.8a18.6,18.6,0,0,1-7.9-1.6c-9.3-4.2-9.7-13.1-9-21,3.3-40.3,27.6-77.9,24.1-118.2-50.3,44.4-80,107.4-104.5,170-7.5,19.2-15.1,39.1-30,53.5a13.4,13.4,0,0,1-4.6,2.9c-9.7,3.6-16-7.2-18.2-16.2a133.1,133.1,0,0,1-3.8-38.5c.6-13.5,3.3-26.8,3.4-40.4s-3-27.7-12.2-37.6c-30.9,29.8-62.5,60.3-81.7,98.7-20.4,40.8-25.4,87.5-25,133.2A48.5,48.5,0,0,0,62,466.3Z" transform="translate(-41.1 -19.5)"/></g><g class="cls-1"><path class="cls-3" d="M846.4,429a56.5,56.5,0,0,1-15.9,23.4c-3.8,3.3-8.4,6.7-17.3,12.7q-19.4,13.1-39.3,25.6c-13.3,8.4-27.2,16.6-42.7,19.6s-33.1-.3-43.5-12.1-10.2-32.9,2.9-41.6c5.7-3.8,12.9-4.9,18.5-8.8,12.3-8.4,12.8-28,3.5-39.6s-25.5-15.9-40.3-14.6-28.8,7.3-42.5,13c-6.3,2.6-13.1,5.3-19.9,1s-9.5-12.7-7.3-20.4c4.6-16.3,23.2-22.1,38.2-23.4a27.5,27.5,0,0,0,11.6-3.5c18-10.5,6.3-31.3-7.8-39.6-16.1-9.5-35.4-12.2-52.3-20.3s-32.3-25.5-28.1-43.7c4.8-20.9,33.3-28.3,52.8-19.4s31.9,28.1,43.5,46.2c3.3,5.1,7.3,10.7,14.4,9.5a13.1,13.1,0,0,0,8-5.2c8.7-11.3,4.2-26.3,2.8-40s3.1-29.2,15.9-31c14.9-2.1,22.8,17.3,23.2,32.3.6,23.6-3.2,50.3,12.6,67.8,2.6,2.9,6.1,5.6,11,2.4a11.8,11.8,0,0,0,4.2-5.1l23.5-52.9c2.2-4.9,4.5-9.9,8.7-13.1s7.9-3.7,12.2-4c18.4-1.3,35.8,10.6,45.5,26.2s13.1,34.3,14.6,52.7c3.1,36.7,2.9,60.7-7.3,96.1Z" transform="translate(-41.1 -19.5)"/></g><g class="cls-4"><path class="cls-5" d="M667.4,78.9a67,67,0,0,0,16.2-4.2c12.6-5,15.9-5.2,23.5,1.4s12.5,19.8,15,31.4c10.1,47.6,8.1,99.2-14.8,142.3a10.6,10.6,0,0,1-6.5,5.3c-5.4,1.4-8.3-2.5-10.5-6.1a122.3,122.3,0,0,1-17.6-56.9c-.4-8-.1-16.3-5.4-23.1a12.2,12.2,0,0,0-11.1-4.8c-10.8,1.5-11.7,16.3-10.1,27,5.2,35.5,6.6,72.7-5.2,106.6-4,11.4-15.8,24.6-26.1,15.6a15.5,15.5,0,0,1-5-12.1,103.3,103.3,0,0,0-16.9-58.8c-13,8.4-19.2,24.1-22.3,39.2s-4.2,30.9-10.4,45c-7.4,16.9-25.1,31.6-44.3,23.8-8.8-3.6-15.3-11.1-18.6-20-6.3-17.2-.9-35.4,7.5-51s18.4-27.7,25.7-42.7a9.1,9.1,0,0,0-.2-8.7c-2.9-4.8-8.4-3.5-12.9-2.4a105,105,0,0,1-46.2.9,7.8,7.8,0,0,1-5.4-4c-2.1-4.2,1.3-7.8,4.4-10.4,33.8-28.4,75.2-45.9,113-68.6a9.2,9.2,0,0,0,4.5-7.4c.3-6.8-6.9-8.5-12.7-9.1l-79.9-8.4c22.8-22.2,56.7-27.6,88.4-29.5s46.1-.5,80.4-9.8Z" transform="translate(-41.1 -19.5)"/></g><g class="cls-4"><path class="cls-6" d="M60.6,56.8c3.8-21.9,9.2-23.1,21.7-27a218.8,218.8,0,0,1,106.8-6.4c7.7,1.5,15.6,3.5,21.4,8.8s8.4,14.7,3.9,21.1c-3.2,4.6-9,6.4-14.3,8.1-10.4,3.4-21.1,7.9-27.5,16.8s-6.3,23.2,2.8,29.2c3.8,2.5,8.5,3.3,13.1,3.3,15.6.1,30.3-7,44.7-13s30.6-10.9,45.5-6.2,26.4,22.8,18.7,36.4c-5.7,10-18.6,13.3-30.1,13.4-9,.1-18.4-1.1-26.8,2.3s-14.6,14-9.8,21.6c2.3,3.6,6.5,5.6,10.4,7.2,17.3,7.1,35.7,11.5,52.6,19.6s32.7,20.9,38.7,38.6-.8,40.5-18.1,47.5c-20.1,8.1-41.7-7-57.2-22.2s-33.5-32.7-55.1-30.2c-3.1.4-6.4,1.3-8.2,3.8s-1.3,8.7-.1,13a150.4,150.4,0,0,1,.8,82.3c-24.4-5-40.8-28.5-48.7-52.1s-10.1-49-19.7-72c-4.1-9.9-12.6-22.2-23.3-22.1-2.2,0-4.1,7-5.1,14.5-1.8,13.8-5,27.2-6.1,41.1S87.5,263.1,76.8,272s-30.6,6.7-34.8-6.5c-1.4-4.6-.9-9.5-.2-14.2,8.4-65.1,6.2-93,14.6-158.1Z" transform="translate(-41.1 -19.5)"/></g></svg>
