<svg id="Layer_1" data-name="Layer 1" xmlns="http://www.w3.org/2000/svg" viewBox="0 0 749.8 161.2"><defs><style>.cls-1{fill:#80c3bc;}.cls-2{fill:#933b25;}.cls-3{fill:#00885f;}.cls-4{fill:#efb86f;}.cls-5{fill:#1b7b7d;}.cls-6{opacity:0.6;}</style></defs><title>leaf-decoration</title><path class="cls-1" d="M82,326.3h.6c21.8,4.6,34.3,3.3,55.8-.8,9-1.7,18.3-4.2,27.4-1.8,7.1,1.8,14.8,6.5,21,2.4a9.4,9.4,0,0,0,3.7-10.4c-1.9-7.7-17.5-9.9-24.1-14.1s-22.1-6.8-29.6-11.5c-2.6-1.7-2.5-5.3.4-6.4,14.7-5.3,28.6,1,42.8,6.3,7,2.6,36.9,12,43.8,8.8,3.7-1.7,6.1-5.3,5.7-9.3-.7-7.4-9.8-10.7-17.3-12.4l-24.4-5.7a9.5,9.5,0,0,1-6.4-4.8c-2.2-4.4,1-7.1,3.9-9.3L227,225.9c-25.7-6.1-50.8,7.1-70.1,22.4-3.5,2.8-7.6,5.8-12.5,3.8a9.4,9.4,0,0,1-5.1-5.1c-2.1-5-.5-9.9,1-14.5l8.9-26.7c-22.4,10.1-40.2,28.3-48.9,50.3-1.9,4.9-3.6,10.2-8.7,13.1a9.2,9.2,0,0,1-8,.5c-5.3-2.3-5.7-8.2-4.9-12.9,2.1-12.9,8.6-26.4,2-38.4-21,21.4-19.1,55-16,84.9.8,7.6-2.5,10.5,2.5,18.1.4.6,1.2.7,1.9.9Z" transform="translate(-62.7 -177.2)"/><path class="cls-2" d="M635.5,267.9a11.5,11.5,0,0,0,3.3-5.6c.2-.8.3-1.5,0-1.8-31.2-29.2-77.7-42.1-120.1-33.5,28.1,30.9,73.3,42,115.8,42Z" transform="translate(-62.7 -177.2)"/><path class="cls-3" d="M446.9,214.8c-29.9-.4-59.5,14.9-76.5,39.4,7.7,2.6,15.9,3,24,3s19.1-.5,27.3-4.8c13.8-7.3,20.2-23.2,25.6-37.9" transform="translate(-62.7 -177.2)"/><path class="cls-4" d="M308.3,285.8a91.7,91.7,0,0,0,64.6,37.9A7.1,7.1,0,0,0,380,320c1.5-2.9-.1-5-1.7-6.8a113,113,0,0,0-41.9-31.2c-9.2-3.9-20.5-6.4-28.5-.4h0A4.1,4.1,0,0,0,308.3,285.8Z" transform="translate(-62.7 -177.2)"/><path class="cls-5" d="M446.6,324.7c21.2.7,34.7,1.1,52.8-8.4s31.9-29.9,24.8-48.1a8.4,8.4,0,0,0-4.2-4.5c-3.8-1.8-6.7-.1-9.2,1.8A57.4,57.4,0,0,0,493,286.7a10.7,10.7,0,0,1-2.7,3.7c-7.4,6.4-16.7-2.1-18.2-9.6s-1-15-7.5-19.2c-13,6-27.5,13.6-30.1,26.1s4.9,30.8,3.1,36.3Z" transform="translate(-62.7 -177.2)"/><g class="cls-6"><path class="cls-3" d="M182.9,187.5c20.9-8.7,44.3.5,65.4,9.6,14.6,6.3,42.4,14.6,42.7,18.8-.6,7.1-7.2,10.8-13.7,10.4s-12.7-3.3-19.1-2.7c-2.1.2-9.9-1.9-11.3-.3-3.8,4.6,7,14.7,12.4,16.8s12.9,2.9,15.6,9.4a11.5,11.5,0,0,1-7.1,15.7c-10.7,3.3-19.2-4.8-26.2-12.6s-17.3-23.6-25.4-24.9c-2.6-.4-6.1.3-7.6,2.7s.7,6.8.6,8.5c-.6,10,2.1,24.7,2,35.8a1.3,1.3,0,0,1-2.5.8c-15.5-25.3-30.7-53.5-27.5-83.4Z" transform="translate(-62.7 -177.2)"/></g><path class="cls-1" d="M807.2,210.5c-2.4-2.3-2.9-3.6-9.5-9.1-3.3-2.7-15.4-5.7-24.7-6.8s-25.1-17.4-35.8-17.4a12.3,12.3,0,0,0-6.5,1.7c-7.4,4.7-2.9,13.4,3,17.8s21.7,12.8,24.7,20.2c1.4,3.4,0,6.4-3,8.4s-18.8,0-21.8-1c-25.9-8.2-21.6-15.5-35.1-21.2-3.1-1.3-6.3-2.6-9.6-2.4-4.9.3-8.8,4-10.7,8.3-3.7,8.3-.8,19.2,6.7,25.2s20.4,9.8,20.3,19a10.2,10.2,0,0,1-5.4,8.6c-6.2,3.5-13.3,2.7-20.2,2.9-9.5.3-19.1,2.9-26,8.9s-11.1,18.3-7.5,24.6h0c9.1,13,36.1-4.8,51.9-12.8,5.6-2.8,11-6.2,17.3-7.5s13.7-.2,18,4.6,4.5,11.8,2.3,17.5-6.3,10.3-9.9,15.2-7.1,10.8-4.6,17.2a8.9,8.9,0,0,0,9.1,5.8c4.3-.6,6.3-4.5,7.9-8.1,9.2-20.2,7.9-20.5,20.5-38.8,3.6-5.3,9.6-19.3,18.1-12.9,5.2,3.9,3.3,9.5,1.1,15.4-4,10.9-11.5,11.3-14.2,27.4-1.2,7.1,4.2,11.8,5.5,12.6s5.5-3.2,6.9-5c20.9-27.5,29.7-64.6,31.9-75.4,3.2-15.9,5.2-23,4.3-27.4l-1.1-4.9A25.4,25.4,0,0,0,807.2,210.5Z" transform="translate(-62.7 -177.2)"/></svg>
