<svg id="Layer_1" data-name="Layer 1" xmlns="http://www.w3.org/2000/svg" viewBox="0 0 98 414"><defs><style>.cls-1{fill:#fff;stroke:#91141c;stroke-miterlimit:10;stroke-width:7px;}.cls-2{isolation:isolate;}.cls-3{fill:#031715;}.cls-4{fill:#91141c;}</style></defs><title>modernism-logo-color</title><rect class="cls-1" x="3.5" y="3.5" width="91" height="407"/><g class="cls-2"><path class="cls-3" d="M65.47,20H72V69.1H65V30.89l-15.1,19h-1.3l-15.28-19V69.1h-7V20h6.66L49.25,40.16Z"/></g><g class="cls-2"><path class="cls-3" d="M48.51,76.28q11.38,0,19,7.21A23.91,23.91,0,0,1,75,101.56a23.52,23.52,0,0,1-7.64,18q-7.64,7.12-19.27,7.12-11.1,0-18.5-7.12a23.73,23.73,0,0,1-7.4-17.84,24.27,24.27,0,0,1,7.45-18.21Q37.13,76.28,48.51,76.28ZM48.79,83a19.06,19.06,0,0,0-13.86,5.27,18,18,0,0,0-5.43,13.46A17.64,17.64,0,0,0,35,114.92a18.8,18.8,0,0,0,13.63,5.27,18.83,18.83,0,0,0,13.72-5.38,18,18,0,0,0,5.5-13.39,17.56,17.56,0,0,0-5.5-13.13A18.67,18.67,0,0,0,48.79,83Z"/></g><g class="cls-2"><path class="cls-3" d="M26.73,214.72l.16-27.84,6.26,0L33,207.73l15,.09.12-20.11,6.29,0-.12,20.11,15.26.09.12-21.48,6.26,0L75.77,215Z"/></g><g class="cls-2"><path class="cls-3" d="M24.12,134.32l49-.32.11,16.56q.06,10-2.9,15.87a22.68,22.68,0,0,1-8.78,9.34,24.58,24.58,0,0,1-12.7,3.53,24.22,24.22,0,0,1-22.74-15.5,24.83,24.83,0,0,1-1.49-5.09,68.34,68.34,0,0,1-.43-8.86ZM67,149.87l-.06-8.79-36.53.24.06,9a36,36,0,0,0,.77,8.19,19.28,19.28,0,0,0,1.86,4.86,16.68,16.68,0,0,0,2.75,3.55A18.19,18.19,0,0,0,49.21,172a16.86,16.86,0,0,0,12.87-5.43,17.07,17.07,0,0,0,3-4.54,18.88,18.88,0,0,0,1.55-4.84A49.17,49.17,0,0,0,67,149.87Z"/></g><g class="cls-2"><path class="cls-3" d="M26.71,207.58l49.11.09,0,12.3q0,7.45-3.71,11.82a12.38,12.38,0,0,1-10,4.36A12.29,12.29,0,0,1,50,227.84a21.75,21.75,0,0,1-4.23,4.6,85.12,85.12,0,0,1-9.33,6.31q-4.19,2.56-6.3,4.1l-3.52,2.6v-8.37l3.24-2.14q.18-.11.6-.42l1.94-1.37L36,231l3.84-2.35a38.2,38.2,0,0,0,4.82-4,15.19,15.19,0,0,0,2.58-3.27,11,11,0,0,0,.8-4.91v-1.83l-21.38,0Zm43.12,9.22v-2.11l-15.5,0v2.67q0,5.34.9,7.33a6.87,6.87,0,0,0,2.75,3.1,8,8,0,0,0,4.2,1.11,7.5,7.5,0,0,0,4.2-1.22A6.57,6.57,0,0,0,69,224.2,25,25,0,0,0,69.83,216.8Z"/></g><g class="cls-2"><path class="cls-4" d="M67.84,254.15a3.75,3.75,0,0,1,2.71,1.09,3.58,3.58,0,0,1,1.13,2.67,3.65,3.65,0,0,1-1.12,2.67,3.69,3.69,0,0,1-2.71,1.13,3.55,3.55,0,0,1-2.6-1.14,3.67,3.67,0,0,1-1.12-2.65,3.63,3.63,0,0,1,1.13-2.62A3.55,3.55,0,0,1,67.84,254.15Zm-3.16,13.61h6.4V300.1h-6.4Z"/></g><path class="cls-3" d="M64.44,267h6.68v35.1h-6L32.28,264.28V302.1H25.67V253h5.7l33.12,38.15Z"/><g class="cls-2"><path class="cls-3" d="M51.9,324.21l-3.25,5.34a24.28,24.28,0,0,1-6,7.15,11.44,11.44,0,0,1-6.84,2.13,12.08,12.08,0,0,1-9.42-4,15,15,0,0,1-3.62-10.46,19.79,19.79,0,0,1,3.45-11.29h8q-5.11,5.31-5.11,11.43a9.45,9.45,0,0,0,1.59,5.66,4.83,4.83,0,0,0,4.08,2.21,6.29,6.29,0,0,0,4.13-1.63,20.52,20.52,0,0,0,4-5.25l3.18-5.37q5.37-9,13.66-9a12.53,12.53,0,0,1,9.6,4A14.47,14.47,0,0,1,73,325.37a21.6,21.6,0,0,1-4.47,13.25H59.64q7.22-5.7,7.22-13.18a8.28,8.28,0,0,0-1.84-5.5,5.77,5.77,0,0,0-4.61-2.2Q55.92,317.74,51.9,324.21Z"/></g><g class="cls-2"><path class="cls-3" d="M65.47,348H72V397.1H65V358.88l-15.1,19h-1.3l-15.28-19V397.1h-7V348h6.66l16.32,20.17Z"/></g></svg>
