<svg id="Layer_1" data-name="Layer 1" xmlns="http://www.w3.org/2000/svg" viewBox="0 0 421.2 255.5"><defs><style>.cls-1,.cls-2,.cls-3,.cls-4{fill:none;stroke-miterlimit:10;}.cls-1{stroke:#e5b008;}.cls-2{stroke:#ef9fb7;}.cls-3{stroke:#2f3e46;}.cls-4{stroke:#bec1c4;}</style></defs><title>transverse-trace-color</title><line class="cls-1" x1="375.9" y1="73.8" x2="375" y2="124"/><line class="cls-2" x1="329.5" y1="156.8" x2="297.8" y2="244.3"/><line class="cls-3" x1="221.8" y1="152.8" x2="286" y2="176"/><path class="cls-4" d="M80.8,94.3l148.5,43.3,42.4-16.4L301,109.8s12-31,42-21.5,20,40.5,20,40.5l55.3,17.5.5-50.5L361.3,76.5l24.3-58L316,18.3,299.8,56.8,250.3,41.3,261.5,18l-83.7.3L249,40.8l1.2.4" transform="translate(-28.5 -17.5)"/><polyline class="cls-4" points="334.5 111.5 266.3 138.6 391.5 175"/><line class="cls-2" x1="83.2" y1="86.2" x2="84.2" y2="176"/><line class="cls-3" x1="111.2" y1="94.3" x2="111.5" y2="175.2"/><polyline class="cls-4" points="52.6 77.1 53 176.9 165 174.4 121.6 255 254.3 254.3 275.5 201.4 297 147.7"/><polyline class="cls-4" points="272.5 92.3 0.5 10.5 1 151"/><line class="cls-4" x1="152.8" y1="174.3" x2="180.8" y2="113.8"/><polyline class="cls-4" points="258.2 244.7 398.5 244 420.5 183.5 355.4 164.4"/><path class="cls-4" d="M293.8,156.1s3.2-16.2-5.9-25-16.9-9.7-16.9-9.7L215.8,249.5l8.5,21.7" transform="translate(-28.5 -17.5)"/><line class="cls-4" x1="146.8" y1="207.8" x2="0.5" y2="212"/><line class="cls-4" x1="1" y1="148" x2="1" y2="212"/><line class="cls-4" x1="193.9" y1="248.7" x2="196.3" y2="254.6"/></svg>
