<svg id="Layer_1" data-name="Layer 1" xmlns="http://www.w3.org/2000/svg" viewBox="0 0 476.7 255.2"><defs><style>.cls-1{fill:none;stroke:#bec1c4;stroke-miterlimit:10;}</style></defs><title>transverse-banner-grey</title><path class="cls-1" d="M242.2,30.1l-1.2-.4L169.8,7.3,253.5,7,242.3,30.3l49.5,15.5L308,7.3l69.5.3-24.2,58,57.5,19.3-.5,50.5L355,117.8s10-31-20-40.5-42,21.5-42,21.5l-29.3,11.3-42.4,16.4L72.8,83.3,4.5,108.5v-45l74-30,215,65" transform="translate(-4 -6.5)"/><polyline class="cls-1" points="351 111.5 282.8 138.6 408 175"/><line class="cls-1" x1="99.7" y1="86.2" x2="100.7" y2="176"/><line class="cls-1" x1="127.7" y1="94.3" x2="128" y2="175.2"/><polyline class="cls-1" points="138.1 255 181.5 174.4 69.5 176.9 69.1 77.1"/><line class="cls-1" x1="169.3" y1="174.3" x2="197.3" y2="113.8"/><polyline class="cls-1" points="313.5 147.7 292 201.4 270.8 254.3"/><line class="cls-1" x1="415" y1="244" x2="274.7" y2="244.7"/><path class="cls-1" d="M285.8,145.1s3.2-16.2-5.9-25-16.9-9.7-16.9-9.7L207.8,238.5l8.5,21.7" transform="translate(-4 -6.5)"/><line class="cls-1" x1="407.5" y1="175" x2="476.5" y2="148"/><polyline class="cls-1" points="38 88 38.5 202 139.5 200 118.5 234"/><line class="cls-1" x1="281" y1="228.3" x2="391.5" y2="227"/></svg>
