<svg id="Layer_1" data-name="Layer 1" xmlns="http://www.w3.org/2000/svg" viewBox="0 0 363.2 104"><defs><style>.cls-1{opacity:0.7;}.cls-2{fill:#00885f;}</style></defs><title>ux-bubble-header</title><g class="cls-1"><path class="cls-2" d="M86,105l.8-.3c19.5-6.3,44-10.3,45.3-35.5.9-17.5-16.5-42.4-34.7-44.4-21.2-2.3-46,12.6-60.5,26.6-6.2,6-13.4,15.4-14.5,24.1S21.1,98.8,27,107c4,5.5,15.8,12.9,22.7,12s13.7-5.1,18.2-10a8.7,8.7,0,0,1,5-2h1c3,1,2.2,8,4.8,10.9a1.6,1.6,0,0,0,2.5-.2c2.1-3.4,1.9-7.1,3.7-10.7Z" transform="translate(-21.7 -21.1)"/></g><path class="cls-2" d="M336.7,119.8a2.8,2.8,0,0,1,2.6.7c6.8,6.6,20.5,5.2,28.1,1.3,10.6-5.5,17.4-17.2,17.4-29.1,0-26.4-25.7-49.9-46.5-62.1-12.1-7-27.3-8-41.1-8.8S261,20,248,24c-24.9,7.6-43.4,19.6-62.4,38.5-7.3,7.3-18.7,18.4-17.7,30.1,1.2,13.5,17.1,9.7,22.5.9a12.2,12.2,0,0,0,1.5-3.5l.9.9.2.2c2.5,2,4.8,4.8,7.5,3.6s2.3-4.5,3-6.8a2.8,2.8,0,0,1,1.2-1.5h.2l.7-.3c17.3-5.3,37.9-6,55.7-4.6s34.8,2.7,51.1,10c8.3,3.7,13,8.2,18.4,15.1a2.8,2.8,0,0,1,.5,1l.5,2v.5c.3,3.8-3.1,13.6,4.3,10.1l.5-.2Z" transform="translate(-21.7 -21.1)"/></svg>
