<svg id="Layer_1" data-name="Layer 1" xmlns="http://www.w3.org/2000/svg" viewBox="0 0 455.9 168.1"><defs><style>.cls-1,.cls-7{fill:#00885f;}.cls-2{opacity:0.8;}.cls-3{opacity:0.9;}.cls-4{opacity:0.7;}.cls-5{opacity:0.3;}.cls-6{opacity:0.5;}.cls-7{stroke:#00885f;stroke-miterlimit:10;stroke-width:0.5px;}</style></defs><title>video-swimming-header</title><path class="cls-1" d="M240.3,114a20.1,20.1,0,0,1-1.1-4.6c-.9-6.7-7.8-17.3-11.7-21.2-6-6.1-18-8.3-26.3-7.1a15.9,15.9,0,0,0-11.6,9c-1.7,3.5-1.5,7.8-3.3,11-5.6,9.8-13.9-1.8-21.1-1.6s-20.3,8.1-25.5,13.8-6.7,19.2-14.9,19.1-6.8-14.7-10.3-19.6c-5.7-8.2-15.5-10.6-24.6-10.6s-17.6-.8-25.4,2.8-15.8,10.4-23.4,7.4c-1.4-.5-3.2-2.1-4.7-2s-3,1.7-4.7,2.3-10.6-.2-4.7,2.9,17.7,1.2,25.2,1.5c17.5.6,34.9,6.1,50.9,13.4,8.7,3.9,12.8,11.4,16.7,19.8s4.5,13.5,14.4,12.6,16.6-5.5,25-7.4a297.2,297.2,0,0,1,35.3-5.1c8.7-.8,16.8-3.2,25.3-4.8,3.9-.7,7.9-1,11.6-2.5,8.6-3.4,11.3-12.1,10.7-20.8-.3-4.4-.1-3.7-1.5-7.8Z" transform="translate(-11.1 -6.7)"/><path class="cls-1" d="M241,113.8c-1.3-3.9-1.6-7.8-3.3-11.5a58.9,58.9,0,0,0-7-11.5c-4.8-6.3-11.8-9.3-19.6-10.3s-15.9,0-20.7,7c-3.2,4.6-2.1,11.6-6.2,15.4s-10.2-1.3-14.6-3c-6.5-2.5-13.6,1.1-19.1,4.3s-11.9,8.4-15.2,15.6c-1.6,3.4-3,7.6-5.9,10.1-5.6,4.8-8.9-1.1-10.4-6.1-1.9-6.8-2.9-12.2-8.9-16.7-7.8-5.8-17.7-5.6-26.9-5.6-5.2,0-10.5.1-15.5,1.7s-8.6,4.2-12.8,6.3a23.8,23.8,0,0,1-8.5,2.9c-3.4.3-5.3-1.5-8.3-2.3s-6.3,2.1-9.8,2.4-5.3,2.4-.2,4.5c8.5,3.5,18.9.5,27.8,1.1,13.3,1,26.3,4.7,38.7,9.6,5.7,2.3,11.7,4.5,16,9s6.1,8.6,8.3,13.3,4.3,12.5,11.3,13.6,12.3-1.5,17.7-3.5a111.3,111.3,0,0,1,18.9-5.2c14.1-2.6,28.4-3.1,42.4-6.2,6.8-1.5,14.2-2.2,20.8-4.3a17.4,17.4,0,0,0,9.6-7.1c4.3-6.7,4.3-16.2,1.5-23.5-.3-.9-1.8-.5-1.4.4,2.9,7.7,2.9,18.5-3.2,24.7-4.1,4.2-9.8,4.8-15.2,5.7s-11.3,2.4-16.9,3.6c-11.3,2.3-22.9,2.7-34.2,4.6a110.6,110.6,0,0,0-16,3.5c-5.3,1.7-10.3,4.1-15.7,5.3s-11,1.4-14.2-3.7c-2.1-3.2-3.2-7.1-4.9-10.5-3.6-7.4-8.2-13.8-15.7-17.4-18.4-8.9-39.2-14.4-59.6-13.2-4.7.3-9.7.7-14.2-.8-.6-.2-3.1-1-3.4-1.6s.2-.1,1-.3,2.7-.1,3.9-.4c2.8-.7,3.7-2.7,7.3-1.7,1.3.4,2.4,1.4,3.8,1.7,3.3.8,6.8-.1,9.9-1.3s7.7-4.1,11.6-6c5.8-2.8,12.1-3.3,18.5-3.3,10,0,21.2-.4,29,7.1,5.4,5.1,4.8,12.3,7.9,18.6,1.9,3.9,5.6,5.9,9.6,3.5s6.8-10.5,9.7-15.5c3.9-7,12.8-12.1,20.1-14.8,5.5-2,9.3-1.4,14.4,1.2,2.5,1.3,5.3,3,8.2,2.7s4.9-2.5,6.1-5c2.6-5.5,2-11.2,7.1-15.6,8.3-7.2,25.4-3.6,32.7,3.6a46,46,0,0,1,7.5,10.6c2.7,4.9,3.4,9.7,5,14.8C239.9,115.1,241.3,114.7,241,113.8Z" transform="translate(-11.1 -6.7)"/><g class="cls-2"><path class="cls-1" d="M121.7,76.8a10.4,10.4,0,0,0,7.3-.8c2.4-1.3,4.9-3,7.4-3.9a42.3,42.3,0,0,1,15-2.8c5.4,0,10.1.2,15.3,1.7s9.1,5,13.5,9.3c6.1,6,17.3-6.4,24.3-8.5s15.2.6,22.3,4.7,15.8,14.5,12.2,23c-7.6,18-95.5,6.7-95.5,6.7-3.3-2.2-8.1-3-11.7-4.6l-13-5.3c-4.5-1.9-6.5-4.8-9.3-8.8a41.9,41.9,0,0,0-9.4-9.9c-6.7-5.1-15.5-9.6-23.1-13.4S62.2,55.9,54.9,52s-12.6-3.8-20.4-4.2c-4.9-.3-5.6-2.4-.4-3.6,1.9-.4,4,.1,5.8-.6s2.4-2.8,3.9-3.9c4.9-3.6,5.1.8,8.2,3.8s6.9,3.9,10.1,4.3l23.3,2.7c7.4.9,15.7,2.6,22.4,6.1s3.8,13.8,12.8,19.8Z" transform="translate(-11.1 -6.7)"/><path class="cls-1" d="M121.5,77.5a13.2,13.2,0,0,0,9.3-1.7c6-3.2,11.8-5.4,18.7-5.7s11.5,0,16.8,1.6,8.4,4.5,12.1,8.1,8.8,2.9,13.8,0c8.4-4.9,14.5-10.3,25.1-6.9s22.1,11.7,21.6,22.9c-.2,5.1-4,7.6-8.4,9.2-10.3,3.9-22.3,3.9-33.1,4s-23.8-.6-35.7-1.6l-12.6-1.2c-1.7-.2-4-.1-5.7-.7s-5.8-2.5-8.7-3.5c-5.6-1.9-11.9-4-17-6.9S111,88.4,108,84.5a44.2,44.2,0,0,0-8.4-8.1C91.1,70,81.3,65.8,72,60.7S54.7,49.4,44.6,47.9c-2.3-.3-4.5-.5-6.8-.6a21.2,21.2,0,0,1-3.2-.2c-6.5-1.6.9-2,2.5-2.3s2.8-.2,4.2-1.2a6.8,6.8,0,0,0,.9-.9L43.5,41h5.6c1.1.6,2.3,3.1,3.4,3.9a18,18,0,0,0,5.4,2.7c5,1.7,10.6,1.7,15.8,2.3,6.8.8,13.7,1.4,20.4,2.8s13.3,2.6,16.3,7.7,3.5,15.1,11,17a.8.8,0,0,0,.4-1.4c-8.7-2.2-6.5-14.9-12.9-19.5-8.1-5.9-20.8-6.5-30.4-7.6-6.4-.7-13.4-.8-19.6-2.6a14.5,14.5,0,0,1-8-5.2c-.8-1.1-1.5-2.6-2.8-3.3s-4.1.7-5.8,1.9l-.7.9a3.3,3.3,0,0,1-2.4,1.3c-2.3,1.2-2.9.9-5.2,1.4s-3.2.7-3.8,1.6c-3,4.4,10.6,3.8,12,4,13,1.4,24.2,10.6,35.6,16.4s22.4,11.1,29.9,21.1c2.2,2.9,4,6.1,7,8.4s9.1,4.3,13.5,6.1c2.6,1,5.1,2,7.7,2.9s4.9,2.4,7.3,3l1.6.2c3.3.6,6.8.8,10.1,1.1,12.6,1.2,25.3,2.1,38,2.2s61.3.9,44.1-25.1c-5.1-7.8-14.9-13.9-24.2-15S196.7,77,187.6,80.4c-6.2,2.3-8.8-3-13.2-6.3s-8.8-4.4-13.7-5a55.2,55.2,0,0,0-18,.4,38.3,38.3,0,0,0-8.2,2.6c-4.3,2-7.4,4.9-12.6,4C120.9,75.9,120.5,77.3,121.5,77.5Z" transform="translate(-11.1 -6.7)"/></g><path class="cls-1" d="M326.2,126.9c2.6,4.9,1.2,11.4-3.5,13.6s-11,2.3-14.1,6.7-2.8,7.6-6.7,11.1-9.8,7.4-14.7,9c-12,4.1-28.3,1.6-40.9,1.4s-24.4-2.9-35.5-.6c-6.6,1.4-12.4,5.4-19.1,6.3-4.9.7-17,.1-18.6,0h-.3l-3.1-.9h-.4c-2.8,0-3.3.5-5.8,0-4.6-.9-10.5-2.5-13.3-5.9a.3.3,0,0,1,.1-.5s-5.3,3.8.1-.1c1.8-1.3,6.4,2,8,.4s-1-3-.5-3.5,1.6.6,2,1a12.3,12.3,0,0,0,6.5,3.4,1.5,1.5,0,0,0,1.5-.9h0a1.5,1.5,0,0,1,1.4-.9c9.7.1,18.5-6.7,28.3-7.1,6.8-.3,13.7-.7,20.4-2.6,4.9-1.4,9.3-3.3,14.4-3.6s8.5.9,12.6.4,10.4-3.1,14.4-5.2-24.9-12.8-24-15.9-1-4-1-9,2.5-7.4,1-12c-.5-1.5-5.1,2.6-3.5-7.5.1-.3-1.3-2.8-1-3V99a13.4,13.4,0,0,1,3-1c2.2,0,26.6-7,36-9.9s15.3-8.2,23.3-10.9c0,0,8.2-3.7,13.2,7.3S326.2,126.9,326.2,126.9Z" transform="translate(-11.1 -6.7)"/><g class="cls-2"><path class="cls-1" d="M300,71.7c3.6-3.5,10.5-5.2,14.9-7.4a82.5,82.5,0,0,1,16.9-6.7c10.6-2.7,15.8-3.1,27.7-3.1,10,0,8.5-.5,16,1,5,1,9.1,1.6,15,4L406.1,66a89.7,89.7,0,0,1,11.8,6.5c11,6.7,19.9,16.1,30.9,22.7a1.8,1.8,0,0,1,.9,1.2h0a1.8,1.8,0,0,1-.8,1.9c-7.5,4.6-16.9-5.7-24.4-9.8-9-5-20.1-8.6-31-14-8-4-16.9-6-24.9-3h-.2c-2.3,1.1-38,19.1-42.9,24.9S283.4,87.9,300,71.7Z" transform="translate(-11.1 -6.7)"/><path class="cls-1" d="M300.5,72.2c4.9-4.3,12.1-6.2,18-8.9a86.6,86.6,0,0,1,22.3-6.9c6.8-1.2,13.6-1.1,20.5-1.2a65.5,65.5,0,0,1,13.4.8,127.1,127.1,0,0,1,40.6,15.7c7,4.2,13.3,9.2,19.7,14.3,2.3,1.9,4.7,3.7,7.1,5.4s4.4,2.3,5,3.4-.5,3.4-1.5,3.7a7.1,7.1,0,0,1-3.8-.4c-6.1-1.8-10.9-6.9-16.3-10s-12.5-6-18.9-8.6c-11.6-4.9-25.4-14.2-38.5-8.6-5.5,2.4-10.9,5.6-16.2,8.4-7.7,4.1-15.6,8.2-22.8,13.3-2.1,1.5-4,4-6.6,4.5s-8.2-.8-11.6-2.2C301.6,91,291.1,82,300.5,72.2c.7-.7-.4-1.8-1.1-1.1-13.3,13.8,9,28.3,22.3,27.4,2.5-.2,3.6-1.1,5.4-2.7,3.3-2.9,7.4-5.2,11.2-7.4,8.7-5.1,17.6-9.8,26.6-14.4,4.4-2.2,8.5-3.6,13.6-3.3,9.6.6,18.1,6.1,26.8,9.8s16.5,6.6,23.9,11.8c4.6,3.3,10.3,8.3,16.4,7.7,2.5-.2,6.1-1.9,4.5-4.9s-5.5-3.8-7.3-5.1c-4.2-3-8.1-6.4-12.2-9.6a141.7,141.7,0,0,0-43.2-23.1c-13.3-4.5-27.7-4.7-41.6-3.3a84.8,84.8,0,0,0-24.6,6.3c-4.3,1.8-8.5,4-12.9,5.7a30.3,30.3,0,0,0-8.9,4.9C298.7,71.8,299.8,72.9,300.5,72.2Z" transform="translate(-11.1 -6.7)"/></g><g class="cls-2"><path class="cls-1" d="M445.7,99.4a.4.4,0,0,0-.1.7c1.7.8,4.2,1.4,5,3s.3,3.4,1.6,5.8,1.6,1.3,1.8,1.1-.3-1.3,0-2,.3-.8,1-1,8,2.5,9.9,2.3,2.1-.4,2.1-1.3-2-4.1-4.8-5.1-8-1.2-11.5-5.5l-2.2,1.7Z" transform="translate(-11.1 -6.7)"/></g><path class="cls-1" d="M332.5,107.5c1.9-4,2.7-.8,6-3s5.4-3,7-6c4-7.5,18-9,23.3-1.5,1.8,2.5,2.6.4,1.1,3.8-.7,1.6-1.8,2.3-2.4,4.1s-6.5,4.5-7,7.7-.7,3.5-3,3-3.2-.5-5-1-3.6,1.9-5,2c-3.3.3-4.6-6.2-8-6s-2-1-9-1Z" transform="translate(-11.1 -6.7)"/><path class="cls-1" d="M333.1,107.9c1.4-2.4,2.5-1.4,4.5-2.1a20.5,20.5,0,0,0,5.5-3.5c3.8-3.1,5.1-7.2,10.3-8.8a14.2,14.2,0,0,1,14.5,3.6c1.8,1.7,2.1,2.2.8,4.4s-2.4,4.4-4.3,5.9a17.7,17.7,0,0,0-3.6,3c-.8,1.1-.6,3.3-1.4,4s-5.5-.8-7.3-.7-3.6,2.8-6.8.7-2.5-4.2-5.8-4.8a58.8,58.8,0,0,0-9-1l.5,1.3,2-2A.8.8,0,0,0,332,107l-2,2a.8.8,0,0,0,.5,1.3c5.1.1,9.7.6,13.1,4.5s5.5.4,10.5.9,5.2,2,6.9-1.7c.9-1.9,1.5-3.3,3.2-4.6a17.9,17.9,0,0,0,2.8-2.2,29.6,29.6,0,0,0,3.5-5.9c1.7-3.3-.7-5-3.6-7.1a15.6,15.6,0,0,0-11.7-2.5,15.1,15.1,0,0,0-10.5,6.6c-2.9,4-5.7,4.9-9.9,6.5-1.7.6-2.1.8-3.1,2.5A.8.8,0,0,0,333.1,107.9Z" transform="translate(-11.1 -6.7)"/><path class="cls-1" d="M316.5,132.5c-3.2,2.6-4.1-1.1-8.6-.6s-4.8-1.3-7.4-2.4c-7-3-14.6-.6-18-5-2.1-2.7,1.7-13.5-2-14s-1,11-12,5c-8-9,4-12-8-12-5.6,0-13.8-9.6-17-16-1-2-3-10.4,2-12,7.4-2.3,16,1,17-3s-7-4-6-9,10-9,22-9,9.7,6.2,16,9,14.3-6.8,22-6c10,1,13,12,19,13,7.8,1.3,13.8-2.7,22,0,6,2,10.8,9.3,13.7,14.5s.6,18.3-2.3,14.9c-11.1-12.7-32.7,4.6-39.4,12.6-1.5,1.8-2.7,8-4,9a26.6,26.6,0,0,0-5,6Z" transform="translate(-11.1 -6.7)"/><path class="cls-1" d="M316.1,131.9c-2.3,1.5-3.6,0-5.5-.5s-2.8.1-4.3-.1c-3.1-.3-5.5-2.7-8.6-3.5s-7.6-.5-11.2-1.6c-5.2-1.6-3.8-6.4-3.6-10.5.1-1.8.1-6.8-3.1-5.8s-1.3,7.1-6.7,6.5-7.1-5.2-6.5-9.5c.2-1,.6-1.9.1-2.8s-1.8-1-2.6-1.1-4.1,0-6.1-.8a18.8,18.8,0,0,1-5.8-4.2c-3.5-3.4-14.5-16.2-7.2-21.3,4.3-3,14.8,1.8,17.9-3s-3.7-5.4-5-7.7c-4.6-8.1,18.5-10.8,22.3-10.6s6.8,1,9.1,4.1a18,18,0,0,0,2.9,3.6c4.4,3.6,9.5.9,13.8-1.3s8.2-4.2,12.8-2.9,6.7,4.1,9.3,7c4,4.4,6.8,6.2,13.1,5.7,4.4-.3,8.6-1.5,13-.9,6,.9,10.1,5,13.4,9.8,1.9,2.8,3.6,5.4,3.9,8.8s.5,6.7-.7,8.8-1.3,1-3-.3a13.2,13.2,0,0,0-3.4-2,15.7,15.7,0,0,0-8.1-.8c-6.8.9-13.1,4.8-18.4,8.9s-8.9,7.5-11.1,13.4-7,10.3-10.7,14.9c-.6.7.5,1.8,1.1,1.1s2.7-3.2,3.9-4.9,4.7-5,6.1-7.8,1.9-6.2,4.3-8.8a56.3,56.3,0,0,1,8.7-7.7c6.2-4.5,15.3-9.9,23.3-7,3.1,1.2,6.3,7,8.4,2.1,4.9-11.2-4.5-27-15.8-29.7-8.8-2-18.5,4.3-25.5-3.2-4.4-4.6-8.7-9.9-15.8-9.4s-16.4,10.9-22.6,4c-3.4-3.8-4.7-6.3-10.4-6.9-7.4-.7-16.8.7-22.8,5.4-3.3,2.6-4.3,6.1-.7,9,1.5,1.2,5.8,2.6,2,5.3-1.2.8-4.3.2-5.7.2-3.3,0-8.3-.4-10.9,2s-2,9.1-.3,12.6c2.8,5.8,8.6,13.2,14.8,15.3a13.6,13.6,0,0,0,4,.5c2.3.1,3.2-.2,3.3,1.9s-.7,3.8.4,6.3c1.7,4,7.9,7.8,11.7,4.1.8-.8,2-5,2.8-5.2s.9,9.5,1,10.7c.7,7.8,12.5,5.8,17.7,7.5,1.9.6,2.7,1.8,4.4,2.5s3,.5,4.8.5c3.5.1,5.8,2.6,9,.5C317.7,132.6,316.9,131.3,316.1,131.9Z" transform="translate(-11.1 -6.7)"/><g class="cls-3"><path class="cls-1" d="M16.5,8.5c1.4,0,1.3,1.8,1.2,3.1s-1.8,1.9-3.2,1.7-3.3-.9-2.4-2.8a3.5,3.5,0,0,1,3-1.8" transform="translate(-11.1 -6.7)"/><path class="cls-1" d="M16.5,9.3c.7.1.5,1.7.4,2.2s-1.1,1.2-2,1.1-2.1-.2-2.4-1,1.6-2.1,2.5-2.2,1-1.6,0-1.5-4.1,1.3-4,3.6S13.4,13.9,15,14s3.3-.6,3.4-2.5,0-3.6-1.9-3.8-1,1.4,0,1.5Z" transform="translate(-11.1 -6.7)"/></g><g class="cls-4"><path class="cls-1" d="M32.5,7.5a3.5,3.5,0,0,1,3,2c.6.9-.3,2.6-1.5,3.2s-3.1-.4-3.7-1.5-1.1-1.2-.8-2.2a2.1,2.1,0,0,1,2.1-1.4Z" transform="translate(-11.1 -6.7)"/><path class="cls-1" d="M32.5,8.3c1.1.1,2.7,1.1,2.3,2.3a1.9,1.9,0,0,1-3,1.1c-.6-.4-1.8-1.8-1.6-2.6s1.5-.9,2.2-.9a.8.8,0,0,0,0-1.5c-1.7,0-3.7.5-3.8,2.5s1.9,3.8,3.4,4.2a3.5,3.5,0,0,0,4.3-3c.3-2.1-2.1-3.7-3.9-3.8S31.5,8.2,32.5,8.3Z" transform="translate(-11.1 -6.7)"/></g><g class="cls-5"><path class="cls-1" d="M33.5,16.5a2.6,2.6,0,0,1,2.6,3.1v.3c-.3,1.5-1.7,2-3.2,1.7-3.7-.6-2.3-4.1.7-5.1Z" transform="translate(-11.1 -6.7)"/><path class="cls-1" d="M33.5,17.3a1.9,1.9,0,0,1,1.7,2.7c-.5,1.2-2.1,1.1-3.1.7a1.1,1.1,0,0,1-.6-1.6,3,3,0,0,1,.8-1c.2-.2.9-.8,1.2-.8a.8.8,0,0,0,0-1.5,4.2,4.2,0,0,0-2.2,1.1A4.2,4.2,0,0,0,30,18.8c-.5,1.7.7,3,2.3,3.4s4.1-.1,4.5-2.3a3.4,3.4,0,0,0-3.2-4.2C32.5,15.7,32.5,17.2,33.5,17.3Z" transform="translate(-11.1 -6.7)"/></g><g class="cls-4"><path class="cls-1" d="M22.1,19.2a2.2,2.2,0,0,1,3,1.2c.7,1.7.4,3.9-1.7,4.1s-3.8-1.7-2.2-4.4a2.1,2.1,0,0,1,.9-.8Z" transform="translate(-11.1 -6.7)"/><path class="cls-1" d="M22.4,19.9c2.3-1,3.4,3.9.5,3.8-.8,0-1.7-.2-1.8-1.1a3.1,3.1,0,0,1,1.3-2.8c.9-.4.1-1.7-.8-1.3a4.5,4.5,0,0,0-1.9,4.8c.5,1.7,2.7,2.1,4.2,1.7s2.4-2.5,2.1-4.2a3.1,3.1,0,0,0-4.4-2.3C20.8,19,21.6,20.2,22.4,19.9Z" transform="translate(-11.1 -6.7)"/></g><g class="cls-4"><path class="cls-1" d="M37.5,27.5c3.1-.2,2.3,5-.4,5a2.4,2.4,0,0,1-2.3-2.8c.3-1.4.4-2.1,1.6-2.3Z" transform="translate(-11.1 -6.7)"/><path class="cls-1" d="M37.5,28.3c1.9-.1,1.4,2.7.3,3.4a1.4,1.4,0,0,1-1.6-.2,1.9,1.9,0,0,1-.5-2c.1-.5.2-1,.7-1.2h1.1a.8.8,0,0,0,0-1.5,3.7,3.7,0,0,0-2.2.4,3.5,3.5,0,0,0-1.1,2.4,3.1,3.1,0,0,0,3.8,3.6c3-.9,3.3-6.6-.4-6.4C36.5,26.8,36.5,28.3,37.5,28.3Z" transform="translate(-11.1 -6.7)"/></g><g class="cls-6"><path class="cls-1" d="M23.5,30.5c2,1,.4,3.5-1.1,3.9s-2.4-3.9-.9-3.9Z" transform="translate(-11.1 -6.7)"/><path class="cls-1" d="M23.1,31.1c1.1.6.4,1.8-.5,2.3s-1.2,0-1.3-.8a2.4,2.4,0,0,1,0-1.1l.2-.4h2a.8.8,0,0,0,0-1.5c-1,0-2.4-.3-3.2.5a3.5,3.5,0,0,0-.1,3.8c2,3.4,7.4-2.1,3.6-4.2C23,29.4,22.3,30.7,23.1,31.1Z" transform="translate(-11.1 -6.7)"/></g><g class="cls-5"><path class="cls-1" d="M30.9,35.5c1.9.9,2.2,4.4-.4,4.3s-3.2-.9-3-2.3.9-2.2,2-2Z" transform="translate(-11.1 -6.7)"/><path class="cls-1" d="M30.5,36.1a2.1,2.1,0,0,1,1.1,2c-.1,1-1.1,1-1.8.7s-2-1.2-1.1-2.3,1.5-.3,2.2-.4a.8.8,0,0,0,0-1.5H29.1a2.7,2.7,0,0,0-2,1.7c-.8,1.9.5,3.4,2.3,3.9s3.3.1,3.7-1.7a3.6,3.6,0,0,0-1.8-3.8C30.4,34.4,29.6,35.7,30.5,36.1Z" transform="translate(-11.1 -6.7)"/></g><g class="cls-6"><path class="cls-1" d="M41.6,53.9c2.6-.2,2.6,4.4.6,5.1s-3.9-4.7-1.7-4.5Z" transform="translate(-11.1 -6.7)"/><path class="cls-1" d="M41.6,54.7c2.6-.1,1,5.3-1.1,3.4a2.4,2.4,0,0,1-.5-2.5c.2-.4.5-.2.8-.4l1.1-.6c.9-.5.1-1.8-.8-1.3l-1,.5c-.2.1.4-.1-.2,0l-.5.2a2.3,2.3,0,0,0-1.1,1.7c-.3,1.6.4,3.5,2.1,4.1,4.4,1.4,5.4-6.8,1.1-6.6C40.7,53.2,40.7,54.7,41.6,54.7Z" transform="translate(-11.1 -6.7)"/></g><g class="cls-4"><path class="cls-1" d="M24.9,76.7c2,.4,1.5,2.5,1.1,4.1s-1.4,2.1-2.9,1.8c-4.2-.6-3-6.1.5-6.1Z" transform="translate(-11.1 -6.7)"/><path class="cls-1" d="M24.7,77.4c1.5.4,1,3.1.2,4s-3,.3-3.5-.8a2.5,2.5,0,0,1,.6-2.8c.8-.8,1.7-.6,2.7-.4s1.4-1.3.4-1.4-3.4-.3-4.6,1.4a3.8,3.8,0,0,0,.4,5.1c1.6,1.4,4.5,1.5,5.6-.6s1.3-5.1-1.3-5.9A.8.8,0,0,0,24.7,77.4Z" transform="translate(-11.1 -6.7)"/></g><g class="cls-6"><path class="cls-1" d="M27,89.3c2.1.4,3.2,3.9.5,4.2s-4-2.9-2-3.9Z" transform="translate(-11.1 -6.7)"/><path class="cls-1" d="M26.8,90a2,2,0,0,1,1.6,1.7c.1,1-1,1.1-1.7.9s-1.6-1.2-1.2-2,1.2-.5,1.8-.6.5-1.6-.4-1.4l-1.6.3a2.3,2.3,0,0,0-1.4,1.9,3.4,3.4,0,0,0,2.7,3.4c1.6.3,3.3-.5,3.3-2.2a3.5,3.5,0,0,0-2.7-3.3C26.2,88.4,25.8,89.8,26.8,90Z" transform="translate(-11.1 -6.7)"/></g><g class="cls-6"><path class="cls-1" d="M17.1,88.6c1.1.3,2.2.3,2.5,1.8a2,2,0,0,1-1.3,2.3,2.8,2.8,0,0,1-3-1.2c-.4-.7-.4-2.7.7-2.8Z" transform="translate(-11.1 -6.7)"/><path class="cls-1" d="M16.9,89.3c.8.2,1.9.2,2,1.2s-1.2,1.7-2.2,1.2a1.7,1.7,0,0,1-.8-2c.2-.6.5-.4,1.2-.4a.8.8,0,0,0,0-1.5,4.2,4.2,0,0,0-1.5.1,2,2,0,0,0-1.2,1.7,3.1,3.1,0,0,0,2.1,3.7A2.8,2.8,0,0,0,20.4,91a2.7,2.7,0,0,0-.8-2.3,5.3,5.3,0,0,0-2.3-.9A.8.8,0,0,0,16.9,89.3Z" transform="translate(-11.1 -6.7)"/></g><g class="cls-4"><path class="cls-1" d="M20.5,97.5c1.9.9,3.7,4.2.5,4.6s-4.4-4-1.2-4.9Z" transform="translate(-11.1 -6.7)"/><path class="cls-1" d="M20.1,98.1a3.5,3.5,0,0,1,1.9,2.2c.1,1-1.2,1.2-1.9.9a2.1,2.1,0,0,1-1.3-2,1.3,1.3,0,0,1,.6-1.1l.4-.2q-.3-.1,0,0l.5.2c.9.3,1.3-1.1.4-1.4a2.1,2.1,0,0,0-2.2.3A2.8,2.8,0,0,0,17.3,99a3.6,3.6,0,0,0,2.3,3.7c1.5.5,3.7-.1,3.9-1.9s-1.3-3.2-2.6-4S19.3,97.7,20.1,98.1Z" transform="translate(-11.1 -6.7)"/></g><g class="cls-6"><path class="cls-1" d="M39.1,99.1c-1.3,0-3.4-.4-3.5,1.5s2,3.2,3.6,3.3a2.2,2.2,0,0,0,2.4-2.8,3.9,3.9,0,0,0-3.2-2.3" transform="translate(-11.1 -6.7)"/></g><g class="cls-3"><path class="cls-1" d="M27.5,99.5c-1.2.2-1.2,2-1.4,3.2a1.7,1.7,0,0,0,1.8,2,3.3,3.3,0,0,0,2.5-2.2c.4-1.8-.3-3.1-2-3Z" transform="translate(-11.1 -6.7)"/><path class="cls-1" d="M27.3,98.8a2.3,2.3,0,0,0-1.5,1.6,8.5,8.5,0,0,0-.4,2.9c.2,2.1,2.5,2.7,4.1,1.7a3.9,3.9,0,0,0,1.6-4.8c-.7-1.5-2.2-1.4-3.6-1.4a.8.8,0,0,0,0,1.5,4.8,4.8,0,0,1,1.8.1c.9.4.7,2,.2,2.6s-2.6,1.7-2.6-.1.1-2.4.8-2.6A.8.8,0,0,0,27.3,98.8Z" transform="translate(-11.1 -6.7)"/></g><g class="cls-5"><path class="cls-1" d="M20.7,110.9c2,.7.7,3.7-1.3,3.3s-1.6-.6-1.3-1.7a2.6,2.6,0,0,1,1.6-2Z" transform="translate(-11.1 -6.7)"/><path class="cls-1" d="M20.5,111.6c.6.2.5.9.2,1.3a1.2,1.2,0,0,1-1.5.4c-.7-.3-.2-1.3.1-1.7l.4-.4c-.1.1-.3-.1.1.1l.7.3c.9.4,1.3-1.1.4-1.4a2.7,2.7,0,0,0-1.4-.4,2.8,2.8,0,0,0-1.7,1.5c-.7,1.4-.6,3,1.1,3.5a2.6,2.6,0,0,0,3.3-1.4,2.3,2.3,0,0,0-1.3-3.2C20,109.8,19.6,111.2,20.5,111.6Z" transform="translate(-11.1 -6.7)"/></g><g class="cls-6"><path class="cls-1" d="M23.5,119.5c-3,0-1.9,4.9,1.3,4.8a2.5,2.5,0,0,0,2.2-2.7,1.9,1.9,0,0,0-.8-1.6c-.8-.6-.8-.4-2.8-.4Z" transform="translate(-11.1 -6.7)"/><path class="cls-1" d="M23.5,118.8a2.5,2.5,0,0,0-2.4,3.1,3.8,3.8,0,0,0,3.4,3.2,3.3,3.3,0,0,0,3.2-4.5,3,3,0,0,0-1.8-1.7,5.6,5.6,0,0,0-2.5,0c-.9.3-.5,1.8.4,1.4a4.7,4.7,0,0,1,1.6,0,1.4,1.4,0,0,1,.8.6,1.8,1.8,0,0,1-1.9,2.6,2.4,2.4,0,0,1-1.7-1.8c-.2-.8.1-1.5.9-1.5S24.5,118.7,23.5,118.8Z" transform="translate(-11.1 -6.7)"/></g><g class="cls-3"><path class="cls-1" d="M32.8,125.8c1.8,0,1.9,5.2-.8,4a3.2,3.2,0,0,1-2-2.2c-.1-1,.5-2.2,1.5-2.1Z" transform="translate(-11.1 -6.7)"/><path class="cls-1" d="M32.8,126.5c.7.1.8,2.5,0,2.7s-.9-.3-1.1-.5a1.7,1.7,0,0,1-.9-1.7c.2-1.1,1-.7,1.8-.6s1.3-1.3.4-1.4a5.7,5.7,0,0,0-1.9-.3,2.3,2.3,0,0,0-1.8,2,3.6,3.6,0,0,0,3.5,4c2.8-.1,2.7-5.5,0-5.7C31.8,124.9,31.9,126.4,32.8,126.5Z" transform="translate(-11.1 -6.7)"/></g><path class="cls-7" d="M448.5,99.5" transform="translate(-11.1 -6.7)"/></svg>
