<svg id="Layer_1" data-name="Layer 1" xmlns="http://www.w3.org/2000/svg" viewBox="0 0 507.9 90.6"><defs><style>.cls-1{opacity:0.9;}.cls-2{fill:#00885f;}.cls-3{opacity:0.3;}.cls-4{opacity:0.5;}.cls-5{opacity:0.8;}.cls-6{opacity:0.2;}</style></defs><title>web-colors-header</title><g class="cls-1"><path class="cls-2" d="M360.9,18.9c41.3-7.5,68.4,67.1,20.3,76.8-44.8,9.1-76.5-66.8-28.5-75.5Z" transform="translate(-5 -7.5)"/><path class="cls-2" d="M361.3,20.4c16.3-2.7,30.5,8,38,21.8s9.5,30.4-.4,42.2c-11.1,13.3-31.9,13.1-45.6,4.2s-22.5-24-22.9-39.6c-.2-8,2.4-16,8.7-21.2s14.5-6.1,22.3-7.4c1.9-.3,1.1-3.2-.8-2.9-7.8,1.3-15.7,2.3-22.3,7.1a27.2,27.2,0,0,0-10.6,18.7c-2.2,17,7.4,34.9,20.5,45.3s34.7,13.3,49.1,1.7,13.3-29.8,7.3-44.4c-7.3-17.5-24-31.7-43.9-28.4C358.6,17.8,359.4,20.7,361.3,20.4Z" transform="translate(-5 -7.5)"/></g><g class="cls-3"><path class="cls-2" d="M245.5,18.5c-34,9.5-34.1,61.1.6,75.3,31.9,13.1,55.1-19.3,47.1-48.9-5.4-20.1-26.6-20.5-42-27.2Z" transform="translate(-5 -7.5)"/><path class="cls-2" d="M245.1,17.1c-32.6,9.6-34.1,54.5-8.8,73,14.5,10.6,34.7,11.4,47.8-1.9s16.5-34.6,8-50.1c-4.7-8.5-13.5-12.8-22.4-15.7-4.9-1.6-10-3-14.9-4.8s-5.7-1.1-9.7-.5c-1.9.3-1.1,3.2.8,2.9s4.1-.8,5.9-.3c3.8.9,7.5,2.7,11.3,3.8,7.5,2.3,15.6,4.6,21.5,10,12.6,11.4,10.4,33.9,1.9,47C276.4,96,257.3,99.1,241.6,90c-12.4-7.2-19.8-20.8-20.1-35.1-.3-15.9,8.7-30.4,24.3-35C247.7,19.4,247,16.5,245.1,17.1Z" transform="translate(-5 -7.5)"/></g><g class="cls-4"><path class="cls-2" d="M9.5,75.5c4,12,14.5,11,22.8,15.5a38.2,38.2,0,0,0,30.1,2.3c19.5-6.9,33.5-30.6,25-50.9-7-16.8-34.9-25.2-52-21.4C15.6,25.5,3.1,53.8,7.5,72.4Z" transform="translate(-5 -7.5)"/><path class="cls-2" d="M8.1,75.9c3.1,8.4,9.3,11.2,17.3,13.9,4.3,1.4,8.1,3.8,12.4,5.2a40.2,40.2,0,0,0,16.9,1.6c18.5-2.1,34-18.3,36.5-36.6S82.3,29,66.2,22.8,32.5,16,20.1,28.1C13.3,34.8,8.7,43.8,6.5,53,4.7,60.7,3.8,69.4,8.2,76.3c1,1.6,3.6.1,2.6-1.5-7.1-11-.4-28.9,6.4-38.6,4.4-6.2,10.5-11.6,18-13.5s14.5-1.1,21.4.4c15.1,3.4,30.2,12.5,31.7,29.3S78.4,85.4,63.2,91.4c-11.3,4.5-21.7,2-32.3-2.7-8.1-3.6-16.5-4.2-20-13.6C10.3,73.3,7.4,74.1,8.1,75.9Z" transform="translate(-5 -7.5)"/></g><g class="cls-5"><path class="cls-2" d="M124.5,73.5c17,11,14.8,10,24,12,14,3,13.2.2,22.9-3.2,19.5-6.9,33.5-30.6,25-50.9-7-16.8-34.9-25.2-52-21.4-19.8,4.5-32.3,32.7-27.9,51.3Z" transform="translate(-5 -7.5)"/><path class="cls-2" d="M123.7,74.8c5.9,3.8,12.1,9,19,11s14.7,3.9,21.4,1.2c8.7-3.5,17.1-6.9,23.8-13.7a43.3,43.3,0,0,0,12.3-26c1.8-20.5-14.2-33.3-32.6-37.9-8.6-2.1-18.6-3-27.1.2s-15,10.1-19.4,17.8-8.2,20.2-6.9,30.7c.8,6.2,5.5,11.1,8.8,16.2,1.1,1.6,3.7.1,2.6-1.5-2.5-3.8-6.1-7.7-7.8-11.8-2.8-6.6-.4-16.6,1.8-23,2.9-8.6,8.2-17.1,15.8-22.3s15.3-5.6,23.5-4.7c17.7,1.9,37.5,11.8,38.4,31.7.4,9.7-3.5,19.2-9.8,26.5s-13.9,10.3-22.3,14c-14.5,6.5-28.4-3.4-40.1-11C123.6,71.2,122.1,73.7,123.7,74.8Z" transform="translate(-5 -7.5)"/></g><g class="cls-6"><path class="cls-2" d="M471.5,20.5c19,3.9,36.7,9.5,39.9,33.6,2.1,16.2-12.4,40.6-29.2,42.3s-42.5-13-43.8-32.1c-.9-13.3,11.4-44.1,28.2-42.8Z" transform="translate(-5 -7.5)"/><path class="cls-2" d="M471.1,21.9c13.8,2.9,29.1,7,35.6,21s1.3,33.5-10.6,44.7-31.1,7.5-43.7-2.5c-6.2-4.9-11.5-11.8-12.4-19.9-.7-6.1,1.1-12.5,3.1-18.3s6.5-14.6,12.3-19.7,10.5-4.2,16.5-5.4c1.9-.4,1.1-3.3-.8-2.9-5.8,1.2-11.2,1.1-16.2,4.8s-10.3,11.8-13.3,18.8-5,13.7-4.8,20.8,4.7,15.6,10.5,21.2c11.2,10.7,30.9,18.4,45.2,9.5s22.9-27.4,19.7-43.5c-4-20.7-21.8-27.8-40.4-31.6C470,18.7,469.2,21.6,471.1,21.9Z" transform="translate(-5 -7.5)"/></g></svg>
